# This file uses centimeters as units for non-parametric coordinates.

g default
v 11.467064 22.202467 -37.500000
v 37.511597 22.202467 -37.500000
v 11.467064 20.537271 -37.500000
v 37.511597 20.537271 -37.500000
v 11.467064 20.537271 34.996304
v 37.511597 20.537271 34.996304
v 11.467064 22.202467 34.996304
v 37.511597 22.202467 34.996304
v 37.511597 20.537271 -12.180407
v 37.511597 22.202467 -12.180407
v -35.138927 22.202467 -12.180407
v -35.138927 22.202467 -37.500000
v -35.138927 20.537271 -37.500000
v -35.138927 20.537271 -12.180407
v 5.534907 22.202467 -12.180407
v 11.467064 22.202467 -6.248250
v 16.530476 22.202467 -12.180407
v 11.467064 22.202467 -17.243818
v 5.534907 20.537271 -12.180407
v 11.467064 20.537271 -17.243818
v 16.530476 20.537271 -12.180407
v 11.467064 20.537271 -6.248250
vt 0.231602 0.576125
vt 0.231602 0.366231
vt 0.245021 0.366231
vt 0.245021 0.576125
vt 0.248784 0.508313
vt 0.248784 0.835890
vt 0.227840 0.835890
vt 0.227840 0.508313
vt 0.206277 0.321817
vt 0.208158 0.055004
vt 0.628805 0.324796
vt 0.691458 0.058412
vt 0.689943 0.273352
vt 0.245337 0.579884
vt 0.245337 0.977972
vt 0.231286 0.977972
vt 0.231286 0.579884
vt 0.227515 0.977972
vt 0.227515 0.443154
vt 0.249108 0.443154
vt 0.249108 0.977972
vt 0.227540 0.835890
vt 0.227540 0.508313
vt 0.249084 0.508313
vt 0.249084 0.835890
vt 0.728472 0.120402
vt 0.914578 0.120391
vt 0.728481 0.265146
vt 0.764664 0.301325
vt 0.914588 0.301316
vt 0.245337 0.366231
vt 0.231286 0.366231
vt 0.245021 0.977972
vt 0.231602 0.977972
vt 0.372167 0.120423
vt 0.686093 0.301330
vt 0.372178 0.301348
vt 0.228097 0.438989
vt 0.248526 0.439010
vt 0.248526 0.977972
vt 0.228097 0.977972
vt 0.948963 0.327053
vt 0.945361 0.837872
vt 0.741449 0.325590
vt 0.689148 0.385996
vt 0.685976 0.836044
vt 0.950844 0.060240
vt 0.914608 0.638426
vt 0.728485 0.343716
vt 0.728503 0.638437
vt 0.227515 0.366231
vt 0.249108 0.366231
vt 0.227515 0.366231
vt 0.227515 0.366231
vt 0.228097 0.366231
vt 0.228097 0.366231
vt 0.228097 0.366231
vn 0.000000 0.000000 -1.000000
vn 0.000000 0.000000 -1.000000
vn 0.000000 0.000000 -1.000000
vn 0.000000 0.000000 -1.000000
vn 0.000000 0.000000 1.000000
vn 0.000000 0.000000 1.000000
vn 0.000000 0.000000 1.000000
vn 0.000000 0.000000 1.000000
vn 0.000000 1.000000 0.000000
vn 0.000000 1.000000 0.000000
vn 0.000000 1.000000 0.000000
vn 0.000000 1.000000 0.000000
vn 0.000000 1.000000 -0.000000
vn 1.000000 0.000000 0.000000
vn 1.000000 0.000000 0.000000
vn 1.000000 0.000000 0.000000
vn 1.000000 0.000000 0.000000
vn -1.000000 0.000000 0.000000
vn -1.000000 0.000000 0.000000
vn -1.000000 0.000000 0.000000
vn -1.000000 0.000000 0.000000
vn -1.000000 0.000000 0.000000
vn -1.000000 0.000000 0.000000
vn -1.000000 0.000000 0.000000
vn -1.000000 0.000000 0.000000
vn 0.000000 -1.000000 0.000000
vn 0.000000 -1.000000 -0.000000
vn 0.000000 -1.000000 -0.000000
vn 0.000000 -1.000000 -0.000000
vn 0.000000 -1.000000 0.000000
vn 1.000000 0.000000 0.000000
vn 1.000000 0.000000 0.000000
vn 0.000000 0.000000 -1.000000
vn 0.000000 0.000000 -1.000000
vn 0.000000 -1.000000 0.000000
vn 0.000000 -1.000000 0.000000
vn 0.000000 -1.000000 0.000000
vn 0.000000 0.000000 1.000000
vn 0.000000 0.000000 1.000000
vn 0.000000 0.000000 1.000000
vn 0.000000 0.000000 1.000000
vn 0.000000 1.000000 0.000000
vn 0.000000 1.000000 -0.000000
vn 0.000000 1.000000 -0.000000
vn 0.000000 1.000000 -0.000000
vn 0.000000 1.000000 0.000000
vn 0.000000 1.000000 -0.000000
vn 0.000000 -1.000000 0.000000
vn 0.000000 -1.000000 0.000000
vn 0.000000 -1.000000 0.000000
vn -0.707107 0.000000 0.707107
vn -0.707107 0.000000 0.707107
vn -0.707107 0.000000 0.707107
vn -0.707107 0.000000 0.707107
vn 0.000000 1.000000 -0.000000
vn 0.000000 1.000000 -0.000000
vn 0.000000 1.000000 -0.000000
vn 0.000000 1.000000 -0.000000
vn 0.000000 -1.000000 0.000000
vn 0.000000 -1.000000 0.000000
vn 0.000000 -1.000000 0.000000
vn 0.000000 -1.000000 0.000000
vn 0.000000 1.000000 0.000000
vn 0.000000 1.000000 0.000000
vn 0.000000 1.000000 0.000000
vn 0.000000 1.000000 0.000000
vn 0.000000 -1.000000 0.000000
vn 0.000000 -1.000000 0.000000
vn 0.000000 -1.000000 0.000000
vn 0.000000 -1.000000 0.000000
s 1
g polySurface7 polySurface1
f 1/1/1 2/2/2 4/3/3 3/4/4
s off
f 5/5/5 6/6/6 8/7/7 7/8/8
s 2
f 7/9/9 8/10/10 16/11/11
f 10/12/12 17/13/13 8/10/10
f 8/10/10 17/13/13 16/11/11
s 4
f 10/14/14 8/15/15 6/16/16 9/17/17
s off
f 7/18/18 16/19/19 22/20/20 5/21/21
f 11/22/22 12/23/23 13/24/24 14/25/25
s 5
f 3/26/26 4/27/27 20/28/28
f 20/28/28 4/27/27 21/29/29
f 4/27/27 9/30/30 21/29/29
s 4
f 2/31/31 10/14/14 9/17/17 4/32/32
s 1
f 1/1/1 3/4/4 13/33/33 12/34/34
s 5
f 3/26/26 20/28/28 13/35/35
f 20/28/28 19/36/36 13/35/35
f 19/36/36 14/37/37 13/35/35
s off
f 19/38/38 15/39/39 11/40/40 14/41/41
s 2
f 1/42/42 12/43/43 18/44/44
f 18/44/44 12/43/43 15/45/45
f 15/45/45 12/43/43 11/46/46
f 10/12/12 2/47/47 17/13/13
f 17/13/13 2/47/47 18/44/44
f 18/44/44 2/47/47 1/42/42
s 5
f 9/30/30 6/48/48 21/29/29
f 21/29/29 6/48/48 22/49/49
f 22/49/49 6/48/48 5/50/50
s off
f 16/19/51 15/51/52 19/52/53 22/20/54
f 15/45/55 16/11/56 17/13/57 18/44/58
f 19/36/59 20/28/60 21/29/61 22/49/62
f 16/19/63 17/53/64 18/54/65 15/51/66
f 19/38/67 20/55/68 21/56/69 22/57/70
