# This file uses centimeters as units for non-parametric coordinates.

g default
v -35.138927 0.000002 -12.180407
v -33.538315 0.000002 -12.180407
v -35.138927 20.537271 -12.180407
v -33.538315 20.537271 -12.180407
v -35.138927 20.537271 -13.781027
v -33.538315 20.537271 -13.781027
v -35.138927 0.000002 -13.781027
v -33.538315 0.000002 -13.781027
v -33.538315 0.000004 -37.500000
v -35.138927 0.000004 -37.500000
v -33.538315 20.537271 -37.500000
v -35.138927 20.537271 -37.500000
v -33.538315 20.537271 -35.899380
v -35.138927 20.537271 -35.899380
v -33.538315 0.000004 -35.899380
v -35.138927 0.000004 -35.899380
v 37.511593 0.000002 -35.899387
v 37.511593 0.000002 -37.500000
v 37.511593 20.537270 -35.899387
v 37.511593 20.537270 -37.500000
v 35.910973 20.537270 -35.899387
v 35.910973 20.537270 -37.500000
v 35.910973 0.000002 -35.899387
v 35.910973 0.000002 -37.500000
v 11.467064 0.000000 34.996311
v 13.067676 0.000000 34.996311
v 11.467064 20.537270 34.996311
v 13.067676 20.537270 34.996311
v 11.467064 20.537270 33.395691
v 13.067676 20.537270 33.395691
v 11.467064 0.000000 33.395691
v 13.067676 0.000000 33.395691
v 35.910984 0.000002 34.996304
v 37.511597 0.000002 34.996304
v 35.910984 20.537270 34.996304
v 37.511597 20.537270 34.996304
v 35.910984 20.537270 33.395683
v 37.511597 20.537270 33.395683
v 35.910984 0.000002 33.395683
v 37.511597 0.000002 33.395683
vt 0.015756 0.015159
vt 0.091330 0.015159
vt 0.091330 0.984841
vt 0.015756 0.984841
vt 0.015756 0.015159
vt 0.091330 0.015159
vt 0.091330 0.984841
vt 0.015756 0.984841
vt 0.015756 0.984841
vt 0.091330 0.984841
vt 0.091330 0.015159
vt 0.015756 0.015159
vt 0.015756 0.984841
vt 0.091330 0.984841
vt 0.091330 0.015159
vt 0.015756 0.015159
vt 0.015756 0.015159
vt 0.091330 0.015159
vt 0.091330 0.984841
vt 0.015756 0.984841
vt 0.015756 0.015159
vt 0.091330 0.015159
vt 0.091330 0.984841
vt 0.015756 0.984841
vt 0.015756 0.984841
vt 0.091330 0.984841
vt 0.091330 0.015159
vt 0.015756 0.015159
vt 0.015756 0.984841
vt 0.091330 0.984841
vt 0.091330 0.015159
vt 0.015756 0.015159
vt 0.015756 0.015159
vt 0.091330 0.015159
vt 0.091330 0.984841
vt 0.015756 0.984841
vt 0.015756 0.015159
vt 0.091330 0.015159
vt 0.091330 0.984841
vt 0.015756 0.984841
vt 0.015756 0.984841
vt 0.091330 0.984841
vt 0.091330 0.015159
vt 0.015756 0.015159
vt 0.015756 0.984841
vt 0.091330 0.984841
vt 0.091330 0.015159
vt 0.015756 0.015159
vt 0.015756 0.015159
vt 0.091330 0.015159
vt 0.091330 0.984841
vt 0.015756 0.984841
vt 0.015756 0.015159
vt 0.091330 0.015159
vt 0.091330 0.984841
vt 0.015756 0.984841
vt 0.015756 0.984841
vt 0.091330 0.984841
vt 0.091330 0.015159
vt 0.015756 0.015159
vt 0.015756 0.984841
vt 0.091330 0.984841
vt 0.091330 0.015159
vt 0.015756 0.015159
vt 0.015756 0.015159
vt 0.091330 0.015159
vt 0.091330 0.984841
vt 0.015756 0.984841
vt 0.015756 0.015159
vt 0.091330 0.015159
vt 0.091330 0.984841
vt 0.015756 0.984841
vt 0.015756 0.984841
vt 0.091330 0.984841
vt 0.091330 0.015159
vt 0.015756 0.015159
vt 0.015756 0.984841
vt 0.091330 0.984841
vt 0.091330 0.015159
vt 0.015756 0.015159
vn 0.000000 0.000000 1.000000
vn 0.000000 0.000000 1.000000
vn 0.000000 0.000000 1.000000
vn 0.000000 0.000000 1.000000
vn 0.000000 0.000000 -1.000000
vn 0.000000 0.000000 -1.000000
vn 0.000000 0.000000 -1.000000
vn 0.000000 0.000000 -1.000000
vn 1.000000 0.000000 0.000000
vn 1.000000 0.000000 0.000000
vn 1.000000 0.000000 0.000000
vn 1.000000 0.000000 0.000000
vn -1.000000 0.000000 0.000000
vn -1.000000 0.000000 0.000000
vn -1.000000 0.000000 0.000000
vn -1.000000 0.000000 0.000000
vn 0.000000 0.000000 -1.000000
vn 0.000000 0.000000 -1.000000
vn 0.000000 0.000000 -1.000000
vn 0.000000 0.000000 -1.000000
vn 0.000000 0.000000 1.000000
vn 0.000000 0.000000 1.000000
vn 0.000000 0.000000 1.000000
vn 0.000000 0.000000 1.000000
vn -1.000000 0.000000 0.000000
vn -1.000000 0.000000 0.000000
vn -1.000000 0.000000 0.000000
vn -1.000000 0.000000 0.000000
vn 1.000000 0.000000 0.000000
vn 1.000000 0.000000 0.000000
vn 1.000000 0.000000 0.000000
vn 1.000000 0.000000 0.000000
vn 1.000000 0.000000 0.000000
vn 1.000000 0.000000 0.000000
vn 1.000000 0.000000 0.000000
vn 1.000000 0.000000 0.000000
vn -1.000000 0.000000 0.000000
vn -1.000000 0.000000 0.000000
vn -1.000000 0.000000 0.000000
vn -1.000000 0.000000 0.000000
vn 0.000000 0.000000 -1.000000
vn 0.000000 0.000000 -1.000000
vn 0.000000 0.000000 -1.000000
vn 0.000000 0.000000 -1.000000
vn 0.000000 0.000000 1.000000
vn 0.000000 0.000000 1.000000
vn 0.000000 0.000000 1.000000
vn 0.000000 0.000000 1.000000
vn 0.000000 0.000000 1.000000
vn 0.000000 0.000000 1.000000
vn 0.000000 0.000000 1.000000
vn 0.000000 0.000000 1.000000
vn 0.000000 0.000000 -1.000000
vn 0.000000 0.000000 -1.000000
vn 0.000000 0.000000 -1.000000
vn 0.000000 0.000000 -1.000000
vn 1.000000 0.000000 0.000000
vn 1.000000 0.000000 0.000000
vn 1.000000 0.000000 0.000000
vn 1.000000 0.000000 0.000000
vn -1.000000 0.000000 0.000000
vn -1.000000 0.000000 0.000000
vn -1.000000 0.000000 0.000000
vn -1.000000 0.000000 0.000000
vn 0.000000 0.000000 1.000000
vn 0.000000 0.000000 1.000000
vn 0.000000 0.000000 1.000000
vn 0.000000 0.000000 1.000000
vn 0.000000 0.000000 -1.000000
vn 0.000000 0.000000 -1.000000
vn 0.000000 0.000000 -1.000000
vn 0.000000 0.000000 -1.000000
vn 1.000000 0.000000 0.000000
vn 1.000000 0.000000 0.000000
vn 1.000000 0.000000 0.000000
vn 1.000000 0.000000 0.000000
vn -1.000000 0.000000 0.000000
vn -1.000000 0.000000 0.000000
vn -1.000000 0.000000 0.000000
vn -1.000000 0.000000 0.000000
s off
g polySurface10
f 1/1/1 2/2/2 4/3/3 3/4/4
f 5/5/5 6/6/6 8/7/7 7/8/8
f 2/9/9 8/10/10 6/11/11 4/12/12
f 7/13/13 1/14/14 3/15/15 5/16/16
f 9/17/17 10/18/18 12/19/19 11/20/20
f 13/21/21 14/22/22 16/23/23 15/24/24
f 10/25/25 16/26/26 14/27/27 12/28/28
f 15/29/29 9/30/30 11/31/31 13/32/32
f 17/33/33 18/34/34 20/35/35 19/36/36
f 21/37/37 22/38/38 24/39/39 23/40/40
f 18/41/41 24/42/42 22/43/43 20/44/44
f 23/45/45 17/46/46 19/47/47 21/48/48
f 25/49/49 26/50/50 28/51/51 27/52/52
f 29/53/53 30/54/54 32/55/55 31/56/56
f 26/57/57 32/58/58 30/59/59 28/60/60
f 31/61/61 25/62/62 27/63/63 29/64/64
f 33/65/65 34/66/66 36/67/67 35/68/68
f 37/69/69 38/70/70 40/71/71 39/72/72
f 34/73/73 40/74/74 38/75/75 36/76/76
f 39/77/77 33/78/78 35/79/79 37/80/80
