# This file uses centimeters as units for non-parametric coordinates.

g default
v -39.308484 0.000000 62.674805
v -39.308484 86.440595 62.674805
v -1.816027 86.440595 79.010392
v -1.816027 0.000000 79.010392
v -38.897760 86.440595 61.732137
v -38.897760 0.000000 61.732137
v -1.405303 86.440595 78.067723
v -1.405303 0.000000 78.067723
vt 0.875000 0.000000
vt 0.875000 0.250000
vt 0.625000 0.250000
vt 0.625000 0.000000
vt 0.875000 0.000000
vt 0.875000 0.250000
vt 0.625000 0.250000
vt 0.625000 0.000000
vt 0.875000 0.000000
vt 0.875000 0.250000
vt 0.625000 0.250000
vt 0.625000 0.000000
vn 0.399436 0.000000 -0.916761
vn 0.399436 0.000000 -0.916761
vn 0.399436 0.000000 -0.916761
vn 0.399436 0.000000 -0.916761
vn -0.399436 0.000000 0.916761
vn -0.399436 0.000000 0.916761
vn -0.399436 0.000000 0.916761
vn -0.399436 0.000000 0.916761
vn -0.916761 0.000000 -0.399436
vn -0.916761 0.000000 -0.399436
vn -0.916761 0.000000 -0.399436
vn -0.916761 0.000000 -0.399436
vn 0.000000 1.000000 0.000000
vn 0.000000 1.000000 0.000000
vn 0.000000 1.000000 0.000000
vn 0.000000 1.000000 0.000000
vn 0.916761 0.000000 0.399436
vn 0.916761 0.000000 0.399436
vn 0.916761 0.000000 0.399436
vn 0.916761 0.000000 0.399436
vn 0.000000 -1.000000 0.000000
vn 0.000000 -1.000000 0.000000
vn 0.000000 -1.000000 0.000000
vn 0.000000 -1.000000 0.000000
s off
g polySurface18 pCube12
f 6/9/1 5/10/2 7/11/3 8/12/4
f 1/5/5 4/8/6 3/7/7 2/6/8
f 1/1/9 2/2/10 5/10/11 6/9/12
f 2/2/13 3/3/14 7/11/15 5/10/16
f 3/3/17 4/4/18 8/12/19 7/11/20
f 4/4/21 1/1/22 6/9/23 8/12/24
