# This file uses centimeters as units for non-parametric coordinates.

g default
v -8.331388 3.502797 3.054318
v -12.293125 3.502797 3.054317
v -14.273997 3.502797 6.485283
v -12.293128 3.502797 9.916249
v -8.331388 3.502797 9.916249
v -6.350520 3.502797 6.485284
v -8.331388 5.232792 3.054318
v -12.293125 5.232792 3.054317
v -14.273997 5.232792 6.485283
v -12.293128 5.232792 9.916249
v -8.331388 5.232792 9.916249
v -6.350520 5.232792 6.485284
v -10.312258 3.502797 6.485284
v -9.668714 1.647805 -7.595534
v -10.955793 1.647805 -7.595534
v -10.955793 2.515668 -7.595534
v -9.668714 2.515668 -7.595534
v -22.184811 1.647805 -1.112456
v -22.828342 1.647805 0.002214
v -22.828342 2.515668 0.002214
v -22.184811 2.515668 -1.112456
v -22.828342 1.647805 12.968344
v -22.184815 1.647805 14.083023
v -22.184815 2.515668 14.083023
v -22.828342 2.515668 12.968344
v -10.955796 1.647805 20.566100
v -9.668716 1.647805 20.566100
v -9.668716 2.515668 20.566100
v -10.955796 2.515668 20.566100
v 1.560300 1.647805 14.083023
v 2.203831 1.647805 12.968348
v 2.203831 2.515668 12.968348
v 1.560300 2.515668 14.083023
v 2.203831 1.647805 0.002227
v 1.560302 1.647805 -1.112454
v 1.560302 2.515668 -1.112454
v 2.203831 2.515668 0.002227
v -9.549888 5.320167 5.164821
v -11.074627 5.320167 5.164821
v -11.836999 5.320167 6.485284
v -11.074629 5.320167 7.805747
v -9.549888 5.320167 7.805747
v -8.787519 5.320167 6.485284
v -9.549888 14.203238 5.164821
v -11.074627 14.203238 5.164821
v -10.312258 14.115864 6.485284
v -11.836999 14.203238 6.485284
v -11.074629 14.203238 7.805747
v -9.549888 14.203238 7.805747
v -8.787519 14.203238 6.485284
vt 0.931574 0.809062
vt 0.931574 0.788406
vt 0.947657 0.788406
vt 0.947657 0.809062
vt 0.965949 0.668267
vt 0.998008 0.668267
vt 0.931574 0.548129
vt 0.947657 0.548129
vt 0.931574 0.527473
vt 0.947657 0.527473
vt 0.859005 0.809062
vt 0.859005 0.788406
vt 0.875088 0.788406
vt 0.875088 0.809062
vt 0.893380 0.668267
vt 0.925439 0.668267
vt 0.859005 0.548129
vt 0.875088 0.548129
vt 0.859005 0.527473
vt 0.875088 0.527473
vt 0.820811 0.527473
vt 0.852870 0.527473
vt 0.802518 0.724827
vt 0.786436 0.724827
vt 0.780301 0.724827
vt 0.748242 0.724827
vt 0.713867 0.527473
vt 0.729949 0.527473
vt 0.675673 0.527473
vt 0.707732 0.527473
vt 0.657380 0.724827
vt 0.641298 0.724827
vt 0.635162 0.724827
vt 0.603104 0.724827
vt 0.568729 0.527473
vt 0.584811 0.527473
vt 0.126341 0.527473
vt 0.150811 0.527473
vt 0.150811 0.692086
vt 0.126341 0.692086
vt 0.175281 0.527473
vt 0.175281 0.692086
vt 0.197221 0.198969
vt 0.270637 0.198969
vt 0.233929 0.262548
vt 0.222004 0.001615
vt 0.245855 0.001615
vt 0.307345 0.262548
vt 0.160514 0.262548
vt 0.453941 0.121754
vt 0.465866 0.142410
vt 0.270637 0.326128
vt 0.001992 0.142410
vt 0.013917 0.121754
vt 0.197221 0.326128
vt 0.465866 0.382687
vt 0.453941 0.403343
vt 0.013917 0.403343
vt 0.001992 0.382687
vt 0.245855 0.523481
vt 0.222004 0.523481
vt 0.120206 0.541600
vt 0.120206 0.569856
vt 0.095736 0.555728
vt 0.095736 0.583983
vt 0.095736 0.527473
vt 0.071267 0.569856
vt 0.071267 0.541600
vt 0.669063 0.326128
vt 0.742478 0.326128
vt 0.717696 0.523481
vt 0.693845 0.523481
vt 0.691643 0.287018
vt 0.719898 0.287018
vt 0.632355 0.262548
vt 0.677515 0.262548
vt 0.779186 0.262548
vt 0.734026 0.262548
vt 0.485759 0.403343
vt 0.473833 0.382687
vt 0.669063 0.198969
vt 0.691643 0.238079
vt 0.937708 0.382686
vt 0.925782 0.403343
vt 0.742478 0.198969
vt 0.719898 0.238079
vt 0.473833 0.142410
vt 0.485759 0.121754
vt 0.925782 0.121754
vt 0.937708 0.142410
vt 0.693845 0.001615
vt 0.717696 0.001615
vt 0.065131 0.527473
vt 0.065131 0.551324
vt 0.049049 0.551324
vt 0.049049 0.527473
vt 0.026831 0.551324
vt 0.026831 0.527473
vt 0.042913 0.527473
vt 0.042913 0.551324
vt 0.496159 0.527473
vt 0.528218 0.527473
vt 0.562593 0.710777
vt 0.546511 0.710777
vt 0.457965 0.527473
vt 0.490024 0.527473
vt 0.439673 0.710777
vt 0.423590 0.710777
vt 0.417455 0.710777
vt 0.385396 0.710777
vt 0.351021 0.527473
vt 0.367104 0.527473
vt 0.310511 0.710777
vt 0.278452 0.710777
vt 0.328803 0.527473
vt 0.344886 0.527473
vt 0.272317 0.692086
vt 0.244061 0.692086
vt 0.244061 0.527473
vt 0.272317 0.527473
vt 0.229934 0.692086
vt 0.229934 0.527473
vt 0.195543 0.527473
vt 0.223799 0.527473
vt 0.223799 0.692086
vt 0.195543 0.692086
vt 0.181416 0.527473
vt 0.181416 0.692086
vn 0.000000 0.000000 -1.000000
vn 0.000000 0.000000 -1.000000
vn 0.000000 0.000000 -1.000000
vn 0.000000 0.000000 -1.000000
vn -0.866033 0.000000 -0.499986
vn -0.866033 0.000000 -0.499986
vn -0.866033 0.000000 -0.499986
vn -0.866033 0.000000 -0.499986
vn -0.866036 0.000000 0.499981
vn -0.866036 0.000000 0.499981
vn -0.866036 0.000000 0.499981
vn -0.866036 0.000000 0.499981
vn 0.000000 0.000000 1.000000
vn 0.000000 0.000000 1.000000
vn 0.000000 0.000000 1.000000
vn 0.000000 0.000000 1.000000
vn 0.866034 0.000000 0.499985
vn 0.866034 0.000000 0.499985
vn 0.866034 0.000000 0.499985
vn 0.866034 0.000000 0.499985
vn 0.866036 0.000000 -0.499981
vn 0.866036 0.000000 -0.499981
vn 0.866036 0.000000 -0.499981
vn 0.866036 0.000000 -0.499981
vn 0.063619 -0.991872 0.110191
vn -0.063620 -0.991872 0.110191
vn 0.000000 -1.000000 -0.000000
vn 0.127239 -0.991872 0.000000
vn 0.063620 -0.991872 -0.110191
vn -0.063620 -0.991872 -0.110191
vn -0.127239 -0.991872 -0.000000
vn -0.028605 0.998362 0.049546
vn 0.028605 0.998362 0.049546
vn 0.000000 1.000000 -0.000000
vn 0.057211 0.998362 0.000000
vn 0.028605 0.998362 -0.049546
vn -0.028605 0.998362 -0.049546
vn -0.057211 0.998362 -0.000000
vn 0.000000 -0.985167 0.171596
vn 0.000000 -0.985167 0.171596
vn -0.992208 0.000000 -0.124594
vn -0.992208 0.000000 -0.124594
vn -0.992208 0.000000 -0.124594
vn -0.992208 0.000000 -0.124594
vn -0.096573 0.981170 -0.167269
vn 0.096574 0.981170 -0.167269
vn 0.000000 0.968961 -0.247214
vn 0.000000 0.968961 -0.247214
vn 0.992208 0.000000 -0.124594
vn 0.992208 0.000000 -0.124594
vn 0.992208 0.000000 -0.124594
vn 0.992208 0.000000 -0.124594
vn 0.148608 -0.985167 0.085798
vn 0.148608 -0.985167 0.085798
vn -0.604006 0.000000 0.796980
vn -0.604006 0.000000 0.796980
vn -0.604006 0.000000 0.796980
vn -0.604006 0.000000 0.796980
vn -0.193147 0.981170 -0.000000
vn -0.214094 0.968961 -0.123606
vn -0.214094 0.968961 -0.123606
vn 0.388204 0.000000 -0.921574
vn 0.388204 0.000000 -0.921574
vn 0.388204 0.000000 -0.921574
vn 0.388204 0.000000 -0.921574
vn 0.148608 -0.985167 -0.085798
vn 0.148608 -0.985167 -0.085798
vn 0.388204 0.000000 0.921574
vn 0.388204 0.000000 0.921574
vn 0.388204 0.000000 0.921574
vn 0.388204 0.000000 0.921574
vn -0.096574 0.981170 0.167269
vn -0.214094 0.968961 0.123606
vn -0.214094 0.968961 0.123606
vn -0.604005 0.000000 -0.796980
vn -0.604005 0.000000 -0.796980
vn -0.604005 0.000000 -0.796980
vn -0.604005 0.000000 -0.796980
vn 0.000000 -0.985167 -0.171596
vn 0.000000 -0.985167 -0.171596
vn 0.992208 0.000000 0.124594
vn 0.992208 0.000000 0.124594
vn 0.992208 0.000000 0.124594
vn 0.992208 0.000000 0.124594
vn 0.096573 0.981170 0.167269
vn 0.000000 0.968961 0.247214
vn 0.000000 0.968961 0.247214
vn -0.992208 0.000000 0.124594
vn -0.992208 0.000000 0.124594
vn -0.992208 0.000000 0.124594
vn -0.992208 0.000000 0.124594
vn -0.148608 -0.985167 -0.085798
vn -0.148608 -0.985167 -0.085798
vn 0.604005 0.000000 -0.796980
vn 0.604005 0.000000 -0.796980
vn 0.604005 0.000000 -0.796980
vn 0.604005 0.000000 -0.796980
vn 0.193147 0.981170 0.000000
vn 0.214094 0.968961 0.123606
vn 0.214094 0.968961 0.123606
vn -0.388204 0.000000 0.921574
vn -0.388204 0.000000 0.921574
vn -0.388204 0.000000 0.921574
vn -0.388204 0.000000 0.921574
vn -0.148608 -0.985167 0.085798
vn -0.148608 -0.985167 0.085798
vn -0.388203 0.000000 -0.921574
vn -0.388203 0.000000 -0.921574
vn -0.388203 0.000000 -0.921574
vn -0.388203 0.000000 -0.921574
vn 0.214094 0.968961 -0.123606
vn 0.214094 0.968961 -0.123606
vn 0.604005 0.000000 0.796981
vn 0.604005 0.000000 0.796981
vn 0.604005 0.000000 0.796981
vn 0.604005 0.000000 0.796981
vn -0.017915 0.999358 -0.031030
vn 0.017915 0.999358 -0.031030
vn -0.035830 0.999358 -0.000000
vn -0.017915 0.999358 0.031030
vn 0.017915 0.999358 0.031030
vn 0.035830 0.999358 0.000000
vn 0.000000 0.000000 -1.000000
vn 0.000000 0.000000 -1.000000
vn 0.000000 0.000000 -1.000000
vn 0.000000 0.000000 -1.000000
vn -0.866025 0.000000 -0.500001
vn -0.866025 0.000000 -0.500001
vn -0.866025 0.000000 -0.500001
vn -0.866025 0.000000 -0.500001
vn -0.866025 0.000000 0.500000
vn -0.866025 0.000000 0.500000
vn -0.866025 0.000000 0.500000
vn -0.866025 0.000000 0.500000
vn 0.000000 0.000000 1.000000
vn 0.000000 0.000000 1.000000
vn 0.000000 0.000000 1.000000
vn 0.000000 0.000000 1.000000
vn 0.866026 0.000000 0.500000
vn 0.866026 0.000000 0.500000
vn 0.866026 0.000000 0.500000
vn 0.866026 0.000000 0.500000
vn 0.866026 0.000000 -0.500000
vn 0.866026 0.000000 -0.500000
vn 0.866026 0.000000 -0.500000
vn 0.866026 0.000000 -0.500000
s off
g pCylinder1
f 14/93/1 15/94/2 16/95/3 17/96/4
f 18/1/5 19/2/6 20/3/7 21/4/8
f 22/7/9 23/9/10 24/10/11 25/8/12
f 26/97/13 27/98/14 28/99/15 29/100/16
f 30/11/17 31/12/18 32/13/19 33/14/20
f 34/17/21 35/19/22 36/20/23 37/18/24
s 1
f 2/43/25 1/44/26 13/45/27
f 3/49/28 2/43/25 13/45/27
f 4/55/29 3/49/28 13/45/27
f 5/52/30 4/55/29 13/45/27
f 6/48/31 5/52/30 13/45/27
f 1/44/26 6/48/31 13/45/27
s 2
f 44/62/32 45/63/33 46/64/34
f 45/63/33 47/65/35 46/64/34
f 47/65/35 48/67/36 46/64/34
f 48/67/36 49/68/37 46/64/34
f 49/68/37 50/66/38 46/64/34
f 50/66/38 44/62/32 46/64/34
s 1
f 1/44/26 2/43/25 15/46/39 14/47/40
s off
f 2/21/41 8/22/42 16/23/43 15/24/44
s 3
f 8/69/45 7/70/46 17/71/47 16/72/48
s off
f 7/25/49 1/26/50 14/27/51 17/28/52
s 1
f 2/43/25 3/49/28 19/53/53 18/54/54
s off
f 3/5/55 9/6/56 20/3/57 19/2/58
s 3
f 9/75/59 8/69/45 21/79/60 20/80/61
s off
f 8/101/62 2/102/63 18/103/64 21/104/65
s 1
f 3/49/28 4/55/29 23/58/66 22/59/67
s off
f 4/105/68 10/106/69 24/107/70 23/108/71
s 3
f 10/81/72 9/75/59 25/87/73 24/88/74
s off
f 9/6/75 3/5/76 22/7/77 25/8/78
s 1
f 4/55/29 5/52/30 27/60/79 26/61/80
s off
f 5/29/81 11/30/82 28/31/83 27/32/84
s 3
f 11/85/85 10/81/72 29/91/86 28/92/87
s off
f 10/33/88 4/34/89 26/35/90 29/36/91
s 1
f 5/52/30 6/48/31 31/56/92 30/57/93
s off
f 6/15/94 12/16/95 32/13/96 31/12/97
s 3
f 12/77/98 11/85/85 33/89/99 32/90/100
s off
f 11/109/101 5/110/102 30/111/103 33/112/104
s 1
f 6/48/31 1/44/26 35/50/105 34/51/106
s off
f 1/113/107 7/114/108 36/115/109 35/116/110
s 3
f 7/70/46 12/77/98 37/83/111 36/84/112
s off
f 12/16/113 6/15/114 34/17/115 37/18/116
s 3
f 7/70/46 8/69/45 39/73/117 38/74/118
f 8/69/45 9/75/59 40/76/119 39/73/117
f 9/75/59 10/81/72 41/82/120 40/76/119
f 10/81/72 11/85/85 42/86/121 41/82/120
f 11/85/85 12/77/98 43/78/122 42/86/121
f 12/77/98 7/70/46 38/74/118 43/78/122
s off
f 38/117/123 39/118/124 45/119/125 44/120/126
f 39/118/127 40/121/128 47/122/129 45/119/130
f 40/127/131 41/123/132 48/126/133 47/128/134
f 41/123/135 42/124/136 49/125/137 48/126/138
f 42/37/139 43/38/140 50/39/141 49/40/142
f 43/38/143 38/41/144 44/42/145 50/39/146
