# This file uses centimeters as units for non-parametric coordinates.

g default
v -10.692152 1.175649 18.161151
v -10.466123 0.032399 18.455933
v -9.734678 0.032399 19.409870
v -9.508649 1.175649 19.704653
v -10.100401 1.882216 18.932902
v -11.338581 1.175649 18.656809
v -11.112552 0.032399 18.951592
v -10.381107 0.032399 19.905529
v -10.155079 1.175649 20.200312
v -10.746829 1.882216 19.428560
v -10.100401 0.859663 18.932902
v -10.746829 0.859663 19.428560
v 2.017101 1.175649 13.378587
v 1.657096 0.032399 13.470137
v 0.492091 0.032399 13.766400
v 0.132085 1.175649 13.857949
v 1.074593 1.882216 13.618269
v 1.816341 1.175649 12.589130
v 1.456335 0.032399 12.680679
v 0.291331 0.032399 12.976942
v -0.068675 1.175649 13.068493
v 0.873833 1.882216 12.828811
v 1.074593 0.859663 13.618269
v 0.873833 0.859663 12.828811
v 2.017101 1.175649 0.138080
v 1.657096 0.032399 0.229630
v 0.492091 0.032399 0.525893
v 0.132085 1.175649 0.617443
v 1.074593 1.882216 0.377762
v 1.816341 1.175649 -0.651377
v 1.456335 0.032399 -0.559827
v 0.291331 0.032399 -0.263564
v -0.068675 1.175649 -0.172014
v 0.873833 1.882216 -0.411696
v 1.074593 0.859663 0.377762
v 0.873833 0.859663 -0.411696
v -22.598968 1.175649 13.133950
v -22.280024 0.032399 12.943530
v -21.247896 0.032399 12.327317
v -20.928951 1.175649 12.136897
v -21.763961 1.882216 12.635423
v -22.181396 1.175649 13.833364
v -21.862452 0.032399 13.642945
v -20.830323 0.032399 13.026731
v -20.511379 1.175649 12.836311
v -21.346386 1.882216 13.334838
v -21.763961 0.859663 12.635423
v -21.346386 0.859663 13.334838
v -22.026670 1.175649 -0.527205
v -21.672636 0.032399 -0.414755
v -20.526954 0.032399 -0.050858
v -20.172920 1.175649 0.061593
v -21.099795 1.882216 -0.232806
v -22.273264 1.175649 0.249158
v -21.919230 0.032399 0.361608
v -20.773548 0.032399 0.725506
v -20.419514 1.175649 0.837956
v -21.346389 1.882216 0.543557
v -21.099795 0.859663 -0.232806
v -21.346389 0.859663 0.543557
v -9.851824 1.175649 -7.253557
v -9.910943 0.032399 -6.886827
v -10.102255 0.032399 -5.700064
v -10.161373 1.175649 -5.333334
v -10.006599 1.882216 -6.293446
v -10.656026 1.175649 -7.383198
v -10.715145 0.032399 -7.016468
v -10.906456 0.032399 -5.829705
v -10.965575 1.175649 -5.462975
v -10.810801 1.882216 -6.423087
v -10.006599 0.859663 -6.293446
v -10.810801 0.859663 -6.423087
v -18.502576 14.829428 7.229058
v -17.646181 14.829428 7.229058
v -18.963854 22.485120 11.348922
v -17.184903 22.485120 11.348922
v -18.963854 22.485120 0.383183
v -17.184903 22.485120 0.383183
v -18.502576 14.829428 4.503047
v -17.646181 14.829428 4.503047
v -18.963854 23.050960 11.348922
v -17.184903 23.050960 11.348922
v -17.184903 23.050960 0.383183
v -18.963854 23.050960 0.383183
v -18.502576 22.010979 4.503041
v -18.502576 22.010979 7.229065
v -17.646181 22.010979 7.229065
v -17.646181 22.010979 4.503041
v -3.171846 14.829428 7.229058
v -2.315450 14.829428 7.229058
v -3.633123 22.485120 11.348922
v -1.854173 22.485120 11.348922
v -3.633123 22.485120 0.383183
v -1.854173 22.485120 0.383183
v -3.171846 14.829428 4.503047
v -2.315450 14.829428 4.503047
v -3.633123 23.050960 11.348922
v -1.854173 23.050960 11.348922
v -1.854173 23.050960 0.383183
v -3.633123 23.050960 0.383183
v -3.171846 22.010979 4.503041
v -3.171846 22.010979 7.229065
v -2.315450 22.010979 7.229065
v -2.315450 22.010979 4.503041
vt 0.413101 0.466614
vt 0.578379 0.682167
vt 0.432311 0.794166
vt 0.267033 0.578614
vt 0.998008 0.578614
vt 0.864295 0.752999
vt 0.718227 0.641000
vt 0.851940 0.466614
vt 0.730582 0.927385
vt 0.584514 0.815386
vt 0.260322 0.462622
vt 0.001992 0.396013
vt 0.001992 0.284013
vt 0.260322 0.350623
vt 0.188921 0.176237
vt 0.001992 0.068461
vt 0.419979 0.176237
vt 0.260322 0.001851
vt 0.427059 0.284013
vt 0.685389 0.350622
vt 0.685389 0.462622
vt 0.427059 0.396012
vt 0.613988 0.176237
vt 0.427059 0.068460
vt 0.845046 0.176237
vt 0.685389 0.001851
vt 0.805448 0.744460
vt 0.783117 0.465605
vt 0.975678 0.465605
vt 0.998008 0.744460
vt 0.411430 0.465605
vt 0.483693 0.749767
vt 0.291132 0.798735
vt 0.218870 0.514574
vt 0.718520 0.465605
vt 0.740851 0.744460
vt 0.548290 0.744460
vt 0.525960 0.465605
vt 0.682389 0.916802
vt 0.489828 0.916802
vt 0.746986 0.916802
vt 0.939546 0.916802
vt 0.001992 0.089641
vt 0.280848 0.001830
vt 0.203774 0.231722
vt 0.001992 0.373802
vt 0.280848 0.461613
vt 0.453190 0.231722
vt 0.632533 0.001830
vt 0.911388 0.089641
vt 0.709607 0.231722
vt 0.911388 0.373802
vt 0.632533 0.461613
vt 0.460191 0.231722
vt 0.805448 0.744460
vt 0.783117 0.465605
vt 0.975678 0.465605
vt 0.998008 0.744460
vt 0.411431 0.465605
vt 0.483693 0.749766
vt 0.291133 0.798735
vt 0.218870 0.514573
vt 0.718520 0.465605
vt 0.740851 0.744460
vt 0.548290 0.744460
vt 0.525960 0.465605
vt 0.682389 0.916802
vt 0.489829 0.916802
vt 0.746986 0.916802
vt 0.939546 0.916802
vt 0.001992 0.089641
vt 0.280848 0.001830
vt 0.203774 0.231722
vt 0.001992 0.373802
vt 0.280848 0.461613
vt 0.453190 0.231722
vt 0.632533 0.001830
vt 0.911388 0.089641
vt 0.709607 0.231721
vt 0.911388 0.373802
vt 0.632533 0.461613
vt 0.460191 0.231721
vt 0.279816 0.320407
vt 0.226756 0.001847
vt 0.421645 0.001847
vt 0.474704 0.320407
vt 0.803119 0.925232
vt 0.631415 0.637635
vt 0.826303 0.521280
vt 0.998008 0.808878
vt 0.901282 0.001847
vt 0.954341 0.320407
vt 0.759453 0.320407
vt 0.706394 0.001847
vt 0.815430 0.517289
vt 0.620541 0.517289
vt 0.140904 0.517289
vt 0.335792 0.517289
vt 0.140904 0.232359
vt 0.055052 0.001847
vt 0.001992 0.320407
vt 0.481629 0.320407
vt 0.534689 0.001847
vt 0.620541 0.232359
vt 0.735762 0.739826
vt 0.763303 0.459826
vt 0.953446 0.459826
vt 0.925905 0.739826
vt 0.181977 0.740421
vt 0.271101 0.459826
vt 0.461245 0.520221
vt 0.372121 0.800816
vt 0.685064 0.459826
vt 0.657523 0.739826
vt 0.467380 0.739826
vt 0.494921 0.459826
vt 0.729626 0.912875
vt 0.539483 0.912875
vt 0.807865 0.912875
vt 0.998008 0.912875
vt 0.455042 0.369126
vt 0.175042 0.455835
vt 0.252432 0.228828
vt 0.455042 0.088531
vt 0.175042 0.001822
vt 0.001992 0.228828
vt 0.742140 0.455835
vt 0.462140 0.369126
vt 0.664750 0.228829
vt 0.462140 0.088531
vt 0.742140 0.001822
vt 0.915190 0.228829
vt 0.998008 0.644591
vt 0.983632 0.922595
vt 0.788074 0.922595
vt 0.802450 0.644591
vt 0.519348 0.504299
vt 0.472827 0.792885
vt 0.277269 0.761360
vt 0.323790 0.472774
vt 0.735417 0.472774
vt 0.721041 0.750779
vt 0.525483 0.750779
vt 0.539859 0.472774
vt 0.758678 0.922595
vt 0.563120 0.922595
vt 0.960371 0.472774
vt 0.764813 0.472774
vt 0.001992 0.091019
vt 0.279997 0.001842
vt 0.203158 0.235312
vt 0.001992 0.379605
vt 0.279997 0.468783
vt 0.451813 0.235312
vt 0.736246 0.468783
vt 0.458242 0.379605
vt 0.659408 0.235312
vt 0.458242 0.091019
vt 0.736246 0.001842
vt 0.908063 0.235312
vt 0.831024 0.565683
vt 0.874745 0.565683
vt 0.898295 0.776013
vt 0.807475 0.776013
vt 0.001992 0.001861
vt 0.092812 0.001861
vt 0.092812 0.561691
vt 0.001992 0.561691
vt 0.710519 0.565683
vt 0.801339 0.565683
vt 0.777790 0.776013
vt 0.734069 0.776013
vt 0.660662 0.565683
vt 0.704384 0.565683
vt 0.704384 0.704853
vt 0.660662 0.704853
vt 0.466272 0.351362
vt 0.466272 0.212191
vt 0.490478 0.001861
vt 0.490478 0.561691
vt 0.893093 0.351362
vt 0.893093 0.212191
vt 0.917299 0.001861
vt 0.917299 0.561691
vt 0.625639 0.656503
vt 0.625639 0.565683
vt 0.654527 0.565683
vt 0.654527 0.656503
vt 0.519366 0.001861
vt 0.519366 0.561691
vt 0.619504 0.565683
vt 0.619504 0.656503
vt 0.590617 0.656503
vt 0.590617 0.565683
vt 0.946187 0.001861
vt 0.946187 0.561691
vt 0.526455 0.351361
vt 0.526455 0.212191
vt 0.954287 0.001861
vt 0.998008 0.001861
vt 0.998008 0.368498
vt 0.954287 0.368498
vt 0.099635 0.351361
vt 0.099635 0.212191
vt 0.904430 0.565683
vt 0.948152 0.565683
vt 0.948152 0.932321
vt 0.904430 0.932321
vt 0.831024 0.565683
vt 0.874745 0.565683
vt 0.898295 0.776013
vt 0.807475 0.776013
vt 0.001992 0.001861
vt 0.092812 0.001861
vt 0.092812 0.561691
vt 0.001992 0.561691
vt 0.710519 0.565683
vt 0.801339 0.565683
vt 0.777790 0.776013
vt 0.734069 0.776013
vt 0.660662 0.565683
vt 0.704384 0.565683
vt 0.704384 0.704853
vt 0.660662 0.704853
vt 0.466272 0.351362
vt 0.466272 0.212191
vt 0.490478 0.001861
vt 0.490478 0.561691
vt 0.893093 0.351362
vt 0.893093 0.212191
vt 0.917299 0.001861
vt 0.917299 0.561691
vt 0.625639 0.656503
vt 0.625639 0.565683
vt 0.654527 0.565683
vt 0.654527 0.656503
vt 0.519366 0.001861
vt 0.519366 0.561691
vt 0.619504 0.565683
vt 0.619504 0.656503
vt 0.590617 0.656503
vt 0.590617 0.565683
vt 0.946187 0.001861
vt 0.946187 0.561691
vt 0.526455 0.351361
vt 0.526455 0.212191
vt 0.954287 0.001861
vt 0.998008 0.001861
vt 0.998008 0.368498
vt 0.954287 0.368498
vt 0.099635 0.351361
vt 0.099635 0.212191
vt 0.904430 0.565683
vt 0.948152 0.565683
vt 0.948152 0.932321
vt 0.904430 0.932321
vn -0.578699 -0.309017 -0.754730
vn -0.578699 -0.309017 -0.754730
vn -0.578699 -0.309017 -0.754730
vn -0.578698 -0.309017 -0.754730
vn 0.000000 -1.000000 0.000000
vn 0.000000 -1.000000 0.000000
vn 0.000000 -1.000000 0.000000
vn 0.000000 -1.000000 0.000000
vn 0.578698 -0.309018 0.754729
vn 0.578698 -0.309018 0.754729
vn 0.578698 -0.309018 0.754729
vn 0.578698 -0.309018 0.754729
vn 0.357655 0.809017 0.466448
vn 0.357655 0.809017 0.466448
vn 0.357655 0.809017 0.466448
vn 0.357655 0.809017 0.466448
vn -0.357656 0.809016 -0.466449
vn -0.357656 0.809017 -0.466449
vn -0.357656 0.809017 -0.466449
vn -0.357656 0.809017 -0.466449
vn 0.793569 0.000002 -0.608480
vn 0.793569 0.000001 -0.608480
vn 0.793569 0.000001 -0.608480
vn 0.793568 0.000002 -0.608481
vn 0.793569 0.000001 -0.608480
vn 0.793570 0.000000 -0.608479
vn -0.793569 0.000001 0.608481
vn -0.793569 0.000002 0.608481
vn -0.793569 0.000001 0.608481
vn -0.793568 0.000001 0.608481
vn -0.793569 0.000000 0.608481
vn -0.793569 0.000000 0.608480
vn 0.921720 -0.309017 -0.234395
vn 0.921720 -0.309017 -0.234395
vn 0.921720 -0.309017 -0.234395
vn 0.921720 -0.309017 -0.234395
vn 0.000000 -1.000000 -0.000000
vn 0.000000 -1.000000 -0.000000
vn 0.000000 -1.000000 -0.000000
vn 0.000000 -1.000000 -0.000000
vn -0.921720 -0.309017 0.234395
vn -0.921720 -0.309017 0.234395
vn -0.921720 -0.309017 0.234395
vn -0.921720 -0.309017 0.234395
vn -0.569654 0.809017 0.144864
vn -0.569654 0.809017 0.144864
vn -0.569654 0.809017 0.144864
vn -0.569654 0.809017 0.144864
vn 0.569654 0.809017 -0.144864
vn 0.569654 0.809017 -0.144864
vn 0.569654 0.809017 -0.144864
vn 0.569654 0.809017 -0.144864
vn 0.246459 0.000000 0.969153
vn 0.246458 0.000000 0.969153
vn 0.246458 0.000000 0.969153
vn 0.246459 0.000000 0.969153
vn 0.246457 0.000000 0.969154
vn 0.246456 0.000000 0.969154
vn -0.246457 0.000000 -0.969154
vn -0.246458 0.000000 -0.969153
vn -0.246458 0.000000 -0.969153
vn -0.246459 0.000000 -0.969153
vn -0.246458 0.000000 -0.969153
vn -0.246457 0.000000 -0.969154
vn 0.921720 -0.309017 -0.234395
vn 0.921720 -0.309017 -0.234395
vn 0.921720 -0.309017 -0.234395
vn 0.921720 -0.309017 -0.234395
vn 0.000000 -1.000000 -0.000000
vn 0.000000 -1.000000 -0.000000
vn 0.000000 -1.000000 -0.000000
vn 0.000000 -1.000000 -0.000000
vn -0.921720 -0.309017 0.234395
vn -0.921720 -0.309017 0.234395
vn -0.921720 -0.309017 0.234395
vn -0.921720 -0.309017 0.234395
vn -0.569654 0.809017 0.144864
vn -0.569654 0.809017 0.144864
vn -0.569654 0.809017 0.144864
vn -0.569654 0.809017 0.144864
vn 0.569654 0.809017 -0.144864
vn 0.569654 0.809017 -0.144864
vn 0.569654 0.809017 -0.144864
vn 0.569654 0.809017 -0.144864
vn 0.246457 -0.000000 0.969154
vn 0.246457 0.000000 0.969154
vn 0.246457 -0.000000 0.969154
vn 0.246457 -0.000000 0.969154
vn 0.246458 -0.000000 0.969154
vn 0.246458 0.000000 0.969154
vn -0.246457 0.000000 -0.969154
vn -0.246457 -0.000000 -0.969154
vn -0.246457 -0.000000 -0.969154
vn -0.246458 -0.000000 -0.969154
vn -0.246457 -0.000000 -0.969154
vn -0.246458 0.000000 -0.969154
vn -0.816591 -0.309018 0.487531
vn -0.816591 -0.309018 0.487531
vn -0.816591 -0.309018 0.487531
vn -0.816591 -0.309018 0.487531
vn 0.000000 -1.000000 -0.000000
vn 0.000000 -1.000000 -0.000000
vn 0.000000 -1.000000 -0.000000
vn 0.000000 -1.000000 -0.000000
vn 0.816592 -0.309016 -0.487531
vn 0.816592 -0.309016 -0.487531
vn 0.816592 -0.309016 -0.487531
vn 0.816592 -0.309016 -0.487531
vn 0.504680 0.809017 -0.301311
vn 0.504680 0.809017 -0.301312
vn 0.504680 0.809017 -0.301312
vn 0.504680 0.809017 -0.301311
vn -0.504680 0.809018 0.301311
vn -0.504680 0.809018 0.301311
vn -0.504680 0.809018 0.301311
vn -0.504680 0.809018 0.301311
vn -0.512621 -0.000000 -0.858615
vn -0.512623 0.000001 -0.858614
vn -0.512621 -0.000001 -0.858615
vn -0.512620 -0.000002 -0.858616
vn -0.512620 -0.000001 -0.858616
vn -0.512621 0.000000 -0.858615
vn 0.512619 0.000000 0.858616
vn 0.512620 -0.000001 0.858616
vn 0.512621 -0.000000 0.858615
vn 0.512622 -0.000000 0.858614
vn 0.512624 0.000001 0.858613
vn 0.512621 0.000000 0.858615
vn -0.906432 -0.309016 -0.287907
vn -0.906432 -0.309016 -0.287907
vn -0.906432 -0.309016 -0.287907
vn -0.906432 -0.309016 -0.287907
vn 0.000000 -1.000000 0.000000
vn 0.000000 -1.000000 0.000000
vn 0.000000 -1.000000 0.000000
vn 0.000000 -1.000000 0.000000
vn 0.906431 -0.309017 0.287907
vn 0.906431 -0.309017 0.287907
vn 0.906431 -0.309017 0.287907
vn 0.906431 -0.309017 0.287907
vn 0.560206 0.809017 0.177936
vn 0.560206 0.809016 0.177936
vn 0.560206 0.809017 0.177936
vn 0.560206 0.809016 0.177936
vn -0.560206 0.809016 -0.177936
vn -0.560206 0.809016 -0.177936
vn -0.560206 0.809017 -0.177936
vn -0.560206 0.809016 -0.177936
vn 0.302722 0.000000 -0.953079
vn 0.302722 0.000000 -0.953079
vn 0.302722 0.000000 -0.953079
vn 0.302722 0.000000 -0.953079
vn 0.302722 0.000000 -0.953079
vn 0.302722 0.000000 -0.953079
vn -0.302722 0.000000 0.953079
vn -0.302722 0.000000 0.953079
vn -0.302722 0.000000 0.953079
vn -0.302722 0.000000 0.953079
vn -0.302721 0.000000 0.953079
vn -0.302722 0.000000 0.953079
vn 0.151361 -0.309017 -0.938935
vn 0.151361 -0.309017 -0.938935
vn 0.151361 -0.309017 -0.938935
vn 0.151361 -0.309017 -0.938935
vn 0.000000 -1.000000 0.000000
vn 0.000000 -1.000000 0.000000
vn 0.000000 -1.000000 0.000000
vn 0.000000 -1.000000 0.000000
vn -0.151361 -0.309017 0.938935
vn -0.151361 -0.309017 0.938935
vn -0.151361 -0.309017 0.938935
vn -0.151361 -0.309017 0.938935
vn -0.093546 0.809017 0.580293
vn -0.093546 0.809017 0.580293
vn -0.093546 0.809017 0.580293
vn -0.093546 0.809017 0.580293
vn 0.093546 0.809017 -0.580293
vn 0.093546 0.809017 -0.580293
vn 0.093546 0.809017 -0.580293
vn 0.093546 0.809017 -0.580293
vn 0.987254 0.000000 0.159150
vn 0.987254 0.000000 0.159150
vn 0.987254 0.000000 0.159150
vn 0.987255 0.000001 0.159150
vn 0.987254 0.000001 0.159150
vn 0.987254 0.000000 0.159150
vn -0.987254 -0.000001 -0.159150
vn -0.987255 -0.000001 -0.159150
vn -0.987254 -0.000001 -0.159150
vn -0.987254 -0.000001 -0.159150
vn -0.987254 -0.000001 -0.159150
vn -0.987254 0.000000 -0.159150
vn 0.000000 -0.648636 0.761099
vn 0.000000 -0.648636 0.761099
vn 0.000000 -0.993443 0.114332
vn 0.000000 -0.993443 0.114332
vn 0.000000 1.000000 0.000000
vn 0.000000 1.000000 0.000000
vn 0.000000 1.000000 0.000000
vn 0.000000 1.000000 0.000000
vn 0.000000 -0.993442 -0.114333
vn 0.000000 -0.993442 -0.114333
vn 0.000000 -0.648636 -0.761099
vn 0.000000 -0.648636 -0.761099
vn 0.000000 -1.000000 0.000000
vn 0.000000 -1.000000 0.000000
vn 0.000000 -1.000000 0.000000
vn 0.000000 -1.000000 0.000000
vn 0.973928 -0.226859 0.000000
vn 0.973928 -0.226859 0.000000
vn 0.716764 -0.697316 0.000000
vn 0.716764 -0.697316 0.000000
vn -0.973927 -0.226859 0.000000
vn -0.973927 -0.226859 0.000000
vn -0.716763 -0.697317 0.000000
vn -0.716763 -0.697317 0.000000
vn 0.000000 0.000000 1.000000
vn 0.000000 0.000000 1.000000
vn 0.000000 0.000000 1.000000
vn 0.000000 0.000000 1.000000
vn 1.000000 0.000000 0.000000
vn 1.000000 0.000000 0.000000
vn 1.000000 0.000000 0.000000
vn 1.000000 0.000000 0.000000
vn 0.000000 0.000000 -1.000000
vn 0.000000 0.000000 -1.000000
vn 0.000000 0.000000 -1.000000
vn 0.000000 0.000000 -1.000000
vn -1.000000 0.000000 0.000000
vn -1.000000 0.000000 0.000000
vn -1.000000 0.000000 0.000000
vn -1.000000 0.000000 0.000000
vn -1.000000 0.000000 0.000000
vn -1.000000 0.000000 0.000000
vn 0.000000 -0.000001 1.000000
vn 0.000000 -0.000001 1.000000
vn 1.000000 -0.000000 0.000000
vn 1.000000 -0.000000 0.000000
vn 0.000000 -0.000001 -1.000000
vn 0.000000 -0.000001 -1.000000
vn 0.000000 -0.648636 0.761098
vn 0.000000 -0.648636 0.761098
vn 0.000000 -0.993443 0.114332
vn 0.000000 -0.993443 0.114332
vn 0.000000 1.000000 0.000000
vn 0.000000 1.000000 0.000000
vn 0.000000 1.000000 0.000000
vn 0.000000 1.000000 0.000000
vn 0.000000 -0.993442 -0.114333
vn 0.000000 -0.993442 -0.114333
vn 0.000000 -0.648636 -0.761098
vn 0.000000 -0.648636 -0.761098
vn 0.000000 -1.000000 0.000000
vn 0.000000 -1.000000 0.000000
vn 0.000000 -1.000000 0.000000
vn 0.000000 -1.000000 0.000000
vn 0.973927 -0.226859 0.000000
vn 0.973927 -0.226859 0.000000
vn 0.716762 -0.697318 0.000000
vn 0.716762 -0.697318 0.000000
vn -0.973928 -0.226859 0.000000
vn -0.973928 -0.226859 0.000000
vn -0.716763 -0.697317 0.000000
vn -0.716763 -0.697317 0.000000
vn 0.000000 0.000000 1.000000
vn 0.000000 0.000000 1.000000
vn 0.000000 0.000000 1.000000
vn 0.000000 0.000000 1.000000
vn 1.000000 0.000000 0.000000
vn 1.000000 0.000000 0.000000
vn 1.000000 0.000000 0.000000
vn 1.000000 0.000000 0.000000
vn 0.000000 0.000000 -1.000000
vn 0.000000 0.000000 -1.000000
vn 0.000000 0.000000 -1.000000
vn 0.000000 0.000000 -1.000000
vn -1.000000 0.000000 0.000000
vn -1.000000 0.000000 0.000000
vn -1.000000 0.000000 0.000000
vn -1.000000 0.000000 0.000000
vn -1.000000 -0.000000 0.000000
vn -1.000000 -0.000000 0.000000
vn 0.000000 -0.000001 1.000000
vn 0.000000 -0.000001 1.000000
vn 1.000000 0.000000 0.000000
vn 1.000000 0.000000 0.000000
vn 0.000000 -0.000001 -1.000000
vn 0.000000 -0.000001 -1.000000
s off
g polySurface16
f 1/11/1 2/12/2 7/13/3 6/14/4
f 2/1/5 3/2/6 8/3/7 7/4/8
f 3/19/9 4/20/10 9/21/11 8/22/12
f 4/5/13 5/6/14 10/7/15 9/8/16
f 5/6/17 1/9/18 6/10/19 10/7/20
s 1
f 2/24/21 1/26/22 11/23/23
f 3/19/24 2/24/21 11/23/23
f 4/20/25 3/19/24 11/23/23
f 5/25/26 4/20/25 11/23/23
f 1/26/22 5/25/26 11/23/23
s 2
f 6/14/27 7/13/28 12/15/29
f 7/13/28 8/16/30 12/15/29
f 8/16/30 9/18/31 12/15/29
f 9/18/31 10/17/32 12/15/29
f 10/17/32 6/14/27 12/15/29
s off
f 13/27/33 14/28/34 19/29/35 18/30/36
f 14/31/37 15/32/38 20/33/39 19/34/40
f 15/35/41 16/36/42 21/37/43 20/38/44
f 16/36/45 17/39/46 22/40/47 21/37/48
f 17/41/49 13/27/50 18/30/51 22/42/52
s 3
f 14/43/53 13/44/54 23/45/55
f 15/46/56 14/43/53 23/45/55
f 16/47/57 15/46/56 23/45/55
f 17/48/58 16/47/57 23/45/55
f 13/44/54 17/48/58 23/45/55
s 4
f 18/49/59 19/50/60 24/51/61
f 19/50/60 20/52/62 24/51/61
f 20/52/62 21/53/63 24/51/61
f 21/53/63 22/54/64 24/51/61
f 22/54/64 18/49/59 24/51/61
s off
f 25/55/65 26/56/66 31/57/67 30/58/68
f 26/59/69 27/60/70 32/61/71 31/62/72
f 27/63/73 28/64/74 33/65/75 32/66/76
f 28/64/77 29/67/78 34/68/79 33/65/80
f 29/69/81 25/55/82 30/58/83 34/70/84
s 5
f 26/71/85 25/72/86 35/73/87
f 27/74/88 26/71/85 35/73/87
f 28/75/89 27/74/88 35/73/87
f 29/76/90 28/75/89 35/73/87
f 25/72/86 29/76/90 35/73/87
s 6
f 30/77/91 31/78/92 36/79/93
f 31/78/92 32/80/94 36/79/93
f 32/80/94 33/81/95 36/79/93
f 33/81/95 34/82/96 36/79/93
f 34/82/96 30/77/91 36/79/93
s off
f 37/83/97 38/84/98 43/85/99 42/86/100
f 38/87/101 39/88/102 44/89/103 43/90/104
f 39/91/105 40/92/106 45/93/107 44/94/108
f 40/92/109 41/95/110 46/96/111 45/93/112
f 41/97/113 37/83/114 42/86/115 46/98/116
s 7
f 38/84/117 37/83/118 47/99/119
f 39/100/120 38/84/117 47/99/119
f 40/101/121 39/100/120 47/99/119
f 41/97/122 40/101/121 47/99/119
f 37/83/118 41/97/122 47/99/119
s 8
f 42/102/123 43/103/124 48/104/125
f 43/103/124 44/94/126 48/104/125
f 44/94/126 45/93/127 48/104/125
f 45/93/127 46/96/128 48/104/125
f 46/96/128 42/102/123 48/104/125
s off
f 49/105/129 50/106/130 55/107/131 54/108/132
f 50/109/133 51/110/134 56/111/135 55/112/136
f 51/113/137 52/114/138 57/115/139 56/116/140
f 52/114/141 53/117/142 58/118/143 57/115/144
f 53/119/145 49/105/146 54/108/147 58/120/148
s 9
f 50/121/149 49/122/150 59/123/151
f 51/124/152 50/121/149 59/123/151
f 52/125/153 51/124/152 59/123/151
f 53/126/154 52/125/153 59/123/151
f 49/122/150 53/126/154 59/123/151
s 10
f 54/127/155 55/128/156 60/129/157
f 55/128/156 56/130/158 60/129/157
f 56/130/158 57/131/159 60/129/157
f 57/131/159 58/132/160 60/129/157
f 58/132/160 54/127/155 60/129/157
s off
f 61/133/161 62/134/162 67/135/163 66/136/164
f 62/137/165 63/138/166 68/139/167 67/140/168
f 63/141/169 64/142/170 69/143/171 68/144/172
f 64/142/173 65/145/174 70/146/175 69/143/176
f 65/147/177 61/133/178 66/136/179 70/148/180
s 11
f 62/149/181 61/150/182 71/151/183
f 63/152/184 62/149/181 71/151/183
f 64/153/185 63/152/184 71/151/183
f 65/154/186 64/153/185 71/151/183
f 61/150/182 65/154/186 71/151/183
s 12
f 66/155/187 67/156/188 72/157/189
f 67/156/188 68/158/190 72/157/189
f 68/158/190 69/159/191 72/157/189
f 69/159/191 70/160/192 72/157/189
f 70/160/192 66/155/187 72/157/189
s 13
f 86/161/193 87/162/194 76/163/195 75/164/196
s off
f 81/165/197 82/166/198 83/167/199 84/168/200
s 14
f 77/169/201 78/170/202 88/171/203 85/172/204
s off
f 79/173/205 80/174/206 74/175/207 73/176/208
s 15
f 87/177/209 88/178/210 78/179/211 76/180/212
s 16
f 85/181/213 86/182/214 75/183/215 77/184/216
s off
f 75/185/217 76/186/218 82/187/219 81/188/220
f 76/180/221 78/179/222 83/189/223 82/190/224
f 78/191/225 77/192/226 84/193/227 83/194/228
f 77/184/229 75/183/230 81/195/231 84/196/232
s 16
f 79/197/233 73/198/234 86/182/214 85/181/213
s 13
f 73/199/235 74/200/236 87/201/194 86/202/193
s 15
f 74/203/237 80/204/238 88/178/210 87/177/209
s 14
f 85/205/204 88/206/203 80/207/239 79/208/240
s 17
f 102/209/241 103/210/242 92/211/243 91/212/244
s off
f 97/213/245 98/214/246 99/215/247 100/216/248
s 18
f 93/217/249 94/218/250 104/219/251 101/220/252
s off
f 95/221/253 96/222/254 90/223/255 89/224/256
s 19
f 103/225/257 104/226/258 94/227/259 92/228/260
s 20
f 101/229/261 102/230/262 91/231/263 93/232/264
s off
f 91/233/265 92/234/266 98/235/267 97/236/268
f 92/228/269 94/227/270 99/237/271 98/238/272
f 94/239/273 93/240/274 100/241/275 99/242/276
f 93/232/277 91/231/278 97/243/279 100/244/280
s 20
f 95/245/281 89/246/282 102/230/262 101/229/261
s 17
f 89/247/283 90/248/284 103/249/242 102/250/241
s 19
f 90/251/285 96/252/286 104/226/258 103/225/257
s 18
f 101/253/252 104/254/251 96/255/287 95/256/288
