# This file uses centimeters as units for non-parametric coordinates.

g default
v 92.499998 100.000000 40.000000
v 92.499998 -5.000000 40.000000
v 99.999998 100.000000 40.000000
v 99.999998 -5.000000 40.000000
v 99.999998 100.000000 -40.000000
v 99.999998 -5.000000 -40.000000
v 92.499998 100.000000 -40.000000
v 92.499998 -5.000000 -40.000000
vt 0.982956 0.011470
vt 0.982956 0.988530
vt 0.095192 0.015104
vt 0.095192 0.984896
vt 0.936029 0.988530
vt 0.936029 0.011470
vt 0.936029 0.988530
vt 0.936029 0.011470
vt 0.095192 0.015104
vt 0.095192 0.984896
vt 0.834082 0.984896
vt 0.834082 0.015104
vt 0.834082 0.984896
vt 0.834082 0.015104
vt 0.982956 0.011470
vt 0.982956 0.988530
vn 1.000000 -0.000000 0.000000
vn 1.000000 -0.000000 0.000000
vn 1.000000 -0.000000 0.000000
vn 1.000000 -0.000000 0.000000
vn -1.000000 0.000000 0.000000
vn -1.000000 0.000000 0.000000
vn -1.000000 0.000000 0.000000
vn -1.000000 0.000000 0.000000
vn -0.000000 -1.000000 0.000000
vn -0.000000 -1.000000 0.000000
vn -0.000000 -1.000000 0.000000
vn -0.000000 -1.000000 0.000000
vn 0.000000 1.000000 0.000000
vn 0.000000 1.000000 0.000000
vn 0.000000 1.000000 0.000000
vn 0.000000 1.000000 0.000000
s off
g pCube7
f 3/9/1 4/10/2 6/11/3 5/12/4
f 7/3/5 8/4/6 2/13/7 1/14/8
f 2/5/9 8/6/10 6/15/11 4/16/12
f 7/1/13 1/2/14 3/7/15 5/8/16
