# This file uses centimeters as units for non-parametric coordinates.

g default
v -47.500002 100.000000 40.000000
v -47.500002 -5.000000 40.000000
v -40.000002 100.000000 40.000000
v -40.000002 -5.000000 40.000000
v -40.000002 100.000000 -40.000000
v -40.000002 -5.000000 -40.000000
v -47.500002 100.000000 -40.000000
v -47.500002 -5.000000 -40.000000
vt 0.982956 0.011470
vt 0.982956 0.011470
vt 0.982956 0.988530
vt 0.982956 0.988530
vt 0.982956 0.011469
vt 0.982956 0.988530
vt 0.936029 0.988530
vt 0.936029 0.011469
vt 0.095192 0.015104
vt 0.095192 0.984896
vt 0.936029 0.988530
vt 0.936029 0.011470
vt 0.936029 0.988530
vt 0.936029 0.011470
vt 0.095192 0.015104
vt 0.095192 0.984896
vt 0.834082 0.984896
vt 0.834082 0.015104
vt 0.834082 0.984896
vt 0.834082 0.015104
vt 0.982956 0.011470
vt 0.982956 0.988530
vt 0.936029 0.988530
vt 0.936029 0.011470
vn 0.000000 -0.000000 1.000000
vn 0.000000 -0.000000 1.000000
vn 0.000000 -0.000000 1.000000
vn 0.000000 -0.000000 1.000000
vn 1.000000 -0.000000 0.000000
vn 1.000000 -0.000000 0.000000
vn 1.000000 -0.000000 0.000000
vn 1.000000 -0.000000 0.000000
vn 0.000000 0.000000 -1.000000
vn 0.000000 0.000000 -1.000000
vn 0.000000 0.000000 -1.000000
vn 0.000000 0.000000 -1.000000
vn -1.000000 0.000000 0.000000
vn -1.000000 0.000000 0.000000
vn -1.000000 0.000000 0.000000
vn -1.000000 0.000000 0.000000
vn -0.000000 -1.000000 0.000000
vn -0.000000 -1.000000 0.000000
vn -0.000000 -1.000000 0.000000
vn -0.000000 -1.000000 0.000000
vn 0.000000 1.000000 0.000000
vn 0.000000 1.000000 0.000000
vn 0.000000 1.000000 0.000000
vn 0.000000 1.000000 0.000000
s off
g pCube6
f 1/2/1 2/4/2 4/23/3 3/24/4
f 3/15/5 4/16/6 6/17/7 5/18/8
f 5/5/9 6/6/10 8/7/11 7/8/12
f 7/9/13 8/10/14 2/19/15 1/20/16
f 2/11/17 8/12/18 6/21/19 4/22/20
f 7/1/21 1/3/22 3/13/23 5/14/24
