# This file uses centimeters as units for non-parametric coordinates.

g default
v -140.000000 0.000000 0.000000
v -120.000000 0.000000 0.000000
v -140.000000 3.065708 0.000000
v -120.000000 3.065708 0.000000
v -140.000000 3.065708 -20.000000
v -120.000000 3.065708 -20.000000
v -140.000000 0.000000 -20.000000
v -120.000000 0.000000 -20.000000
vt 0.925081 0.253609
vt 0.925082 0.740568
vt 0.925079 0.010129
vt 0.925082 0.497088
vt 0.962403 0.253608
vt 0.962404 0.497088
vt 0.015169 0.052077
vt 0.911014 0.052077
vt 0.962404 0.740567
vt 0.962401 0.010129
vt 0.015169 0.052077
vt 0.911014 0.052077
vt 0.911014 0.947922
vt 0.015169 0.947922
vt 0.911014 0.947922
vt 0.015169 0.947922
vt 0.925087 0.984047
vt 0.962409 0.984047
vn 0.000000 0.000000 1.000000
vn 0.000000 0.000000 1.000000
vn 0.000000 0.000000 1.000000
vn 0.000000 0.000000 1.000000
vn 0.000000 1.000000 0.000000
vn 0.000000 1.000000 0.000000
vn 0.000000 1.000000 0.000000
vn 0.000000 1.000000 0.000000
vn 0.000000 0.000000 -1.000000
vn 0.000000 0.000000 -1.000000
vn 0.000000 0.000000 -1.000000
vn 0.000000 0.000000 -1.000000
vn 0.000000 -1.000000 0.000000
vn 0.000000 -1.000000 0.000000
vn 0.000000 -1.000000 0.000000
vn 0.000000 -1.000000 0.000000
vn 1.000000 0.000000 0.000000
vn 1.000000 0.000000 0.000000
vn 1.000000 0.000000 0.000000
vn 1.000000 0.000000 0.000000
vn -1.000000 0.000000 0.000000
vn -1.000000 0.000000 0.000000
vn -1.000000 0.000000 0.000000
vn -1.000000 0.000000 0.000000
s off
g pCube9
f 1/17/1 2/2/2 4/9/3 3/18/4
f 3/11/5 4/12/6 6/13/7 5/14/8
f 5/5/9 6/6/10 8/4/11 7/1/12
f 7/7/13 8/8/14 2/15/15 1/16/16
f 2/2/17 8/4/18 6/6/19 4/9/20
f 7/1/21 1/3/22 3/10/23 5/5/24
