# This file uses centimeters as units for non-parametric coordinates.

g default
v -151.466404 22.202467 -10.500240
v -135.460280 22.202467 -10.500240
v -151.466404 22.693165 -10.500240
v -135.460280 22.693165 -10.500240
v -151.466404 23.181328 -16.483898
v -135.460280 23.181328 -16.483898
v -151.466404 22.202467 -16.483898
v -135.460280 22.202467 -16.483898
vt 0.864118 0.374338
vt 0.864118 0.001992
vt 0.925030 0.001992
vt 0.894653 0.374338
vt 0.876330 0.750433
vt 0.876330 0.378087
vt 0.906865 0.378087
vt 0.937242 0.750433
vt 0.038659 0.998008
vt 0.038659 0.001992
vt 0.411006 0.001992
vt 0.411006 0.998008
vt 0.485249 0.998008
vt 0.485249 0.001992
vt 0.857595 0.001992
vt 0.857595 0.998008
vt 0.001871 0.998008
vt 0.001871 0.001992
vt 0.032405 0.001992
vt 0.032405 0.998008
vt 0.417529 0.998008
vt 0.417529 0.001992
vt 0.478440 0.001992
vt 0.478440 0.998008
vn 0.000000 0.000000 1.000000
vn 0.000000 0.000000 1.000000
vn 0.000000 0.000000 1.000000
vn 0.000000 0.000000 1.000000
vn 0.000000 0.996689 0.081313
vn 0.000000 0.996689 0.081313
vn 0.000000 0.996689 0.081313
vn 0.000000 0.996689 0.081313
vn 0.000000 0.000000 -1.000000
vn 0.000000 0.000000 -1.000000
vn 0.000000 0.000000 -1.000000
vn 0.000000 0.000000 -1.000000
vn 0.000000 -1.000000 0.000000
vn 0.000000 -1.000000 0.000000
vn 0.000000 -1.000000 0.000000
vn 0.000000 -1.000000 0.000000
vn 1.000000 0.000000 0.000000
vn 1.000000 0.000000 0.000000
vn 1.000000 0.000000 0.000000
vn 1.000000 0.000000 0.000000
vn -1.000000 0.000000 0.000000
vn -1.000000 0.000000 0.000000
vn -1.000000 0.000000 0.000000
vn -1.000000 0.000000 0.000000
s off
g pCube17
f 1/17/1 2/18/2 4/19/3 3/20/4
f 3/9/5 4/10/6 6/11/7 5/12/8
f 5/21/9 6/22/10 8/23/11 7/24/12
f 7/13/13 8/14/14 2/15/15 1/16/16
f 2/1/17 8/2/18 6/3/19 4/4/20
f 7/5/21 1/6/22 3/7/23 5/8/24
