# This file uses centimeters as units for non-parametric coordinates.

g default
v -138.733500 22.855983 11.449788
v -138.733500 22.172869 11.454461
v -138.141886 22.514425 11.452124
v -138.733500 22.862584 12.414424
v -138.733500 22.179470 12.419098
v -138.141886 22.521026 12.416761
v -138.536295 22.514425 11.452124
v -138.408518 22.872604 13.933070
v -138.256830 22.872531 15.646505
v -139.122355 22.872532 16.988876
v -140.572657 22.872531 17.703470
v -142.213907 22.872532 17.910437
v -143.918604 22.872532 17.887575
v -145.620051 22.872530 18.220427
v -147.239359 22.872532 18.960747
v -148.032633 22.872532 20.379609
v -148.919062 22.747110 21.370149
v -150.099878 20.290260 21.377898
v -150.080576 17.484119 21.615025
v -150.118586 14.521473 21.954788
v -150.161707 7.174485 21.006740
v -138.408533 22.189488 13.937579
v -138.257517 22.189400 15.646570
v -139.122950 22.189400 16.988517
v -140.572992 22.189400 17.702855
v -142.214029 22.189400 17.909744
v -143.918619 22.189400 17.886873
v -145.620203 22.189400 18.219739
v -147.239664 22.189400 18.960117
v -148.033259 22.189401 20.379303
v -148.882959 22.067016 21.316881
v -149.569941 20.080420 21.001335
v -149.513620 17.461426 21.234617
v -149.551539 14.470941 21.577208
v -149.593760 7.219822 20.629844
v -149.768137 7.175532 20.980817
v -137.830362 22.530202 13.809858
v -137.667917 22.530360 15.593895
v -138.617823 22.530361 17.297158
v -140.301966 22.530360 18.229125
v -142.135874 22.530360 18.496527
v -143.925837 22.530361 18.478794
v -145.505121 22.530360 18.800413
v -146.991877 22.530360 19.497723
v -147.509516 22.530360 20.655166
v -148.459162 22.399706 21.736859
v -149.544916 20.033355 21.682388
v -149.467234 17.522339 21.913450
v -149.505198 14.547988 22.254403
v -149.548960 7.132242 21.305859
vt 0.412944 0.502678
vt 0.443116 0.502678
vt 0.443116 0.545284
vt 0.412944 0.545284
vt 0.443132 0.612351
vt 0.412961 0.612359
vt 0.443652 0.687830
vt 0.413482 0.688033
vt 0.444058 0.747098
vt 0.413887 0.747320
vt 0.370874 0.502913
vt 0.401044 0.502678
vt 0.401473 0.565357
vt 0.371302 0.565577
vt 0.407162 0.606729
vt 0.377141 0.609287
vt 0.180163 0.016559
vt 0.198812 0.001992
vt 0.195691 0.106487
vt 0.165626 0.104202
vt 0.205137 0.217457
vt 0.175138 0.219942
vt 0.219297 0.348924
vt 0.189365 0.352122
vt 0.175163 0.676157
vt 0.145333 0.672085
vt 0.338962 0.532850
vt 0.338962 0.502678
vt 0.347672 0.517764
vt 0.365091 0.517764
vt 0.449840 0.502678
vt 0.480011 0.502705
vt 0.480227 0.566748
vt 0.450056 0.566733
vt 0.480289 0.639227
vt 0.450119 0.639221
vt 0.480282 0.714513
vt 0.450112 0.714512
vt 0.480383 0.789666
vt 0.450212 0.789659
vt 0.480607 0.861192
vt 0.450436 0.861178
vt 0.137764 0.001992
vt 0.139359 0.032013
vt 0.109017 0.119656
vt 0.085612 0.110502
vt 0.111505 0.235396
vt 0.086464 0.234509
vt 0.109830 0.367576
vt 0.084785 0.365458
vt 0.107965 0.687539
vt 0.082881 0.689655
vt 0.077073 0.676157
vt 0.056761 0.691611
vt 0.004608 0.583101
vt 0.029119 0.571663
vt 0.005461 0.459095
vt 0.032550 0.460693
vt 0.003782 0.328145
vt 0.030873 0.329226
vt 0.001877 0.003948
vt 0.028940 0.001992
vt 0.486389 0.549741
vt 0.486389 0.523612
vt 0.528995 0.523612
vt 0.528995 0.549741
vt 0.590524 0.509853
vt 0.596062 0.535389
vt 0.669317 0.502678
vt 0.671541 0.528719
vt 0.744543 0.544632
vt 0.730808 0.566942
vt 0.785704 0.619015
vt 0.762358 0.630985
vt 0.797514 0.700012
vt 0.771495 0.703464
vt 0.796730 0.779069
vt 0.770485 0.778750
vt 0.810935 0.848821
vt 0.785186 0.853903
vt 0.841732 0.914485
vt 0.817885 0.925429
vt 0.892851 0.937348
vt 0.880564 0.960480
vt 0.940585 0.979290
vt 0.921936 0.998008
vt 0.680349 0.022926
vt 0.680348 0.049055
vt 0.637743 0.049055
vt 0.637743 0.022926
vt 0.570668 0.034702
vt 0.576213 0.009167
vt 0.494993 0.028002
vt 0.497420 0.001992
vt 0.435707 0.066230
vt 0.422195 0.043946
vt 0.404146 0.130284
vt 0.381034 0.118329
vt 0.395006 0.202773
vt 0.369224 0.199326
vt 0.396015 0.278063
vt 0.370007 0.278383
vt 0.381315 0.353210
vt 0.355803 0.348134
vt 0.348618 0.424730
vt 0.325006 0.413799
vt 0.285953 0.459766
vt 0.273886 0.436662
vt 0.242243 0.498916
vt 0.226152 0.478604
vt 0.306117 0.519310
vt 0.331201 0.502678
vt 0.323499 0.518166
vt 0.333180 0.532508
vn -1.000000 0.000000 0.000000
vn -1.000000 0.000000 0.000000
vn -0.991544 0.000879 0.129764
vn -0.991547 0.000879 0.129749
vn 0.499995 -0.866008 0.005926
vn 0.499995 -0.866008 0.005926
vn 0.496060 -0.866046 -0.062365
vn 0.496509 -0.866208 -0.056237
vn 0.499997 0.866007 -0.005926
vn 0.499998 0.866007 -0.005926
vn 0.496525 0.865368 -0.067835
vn 0.496078 0.865124 -0.073944
vn -0.000001 -0.006842 -0.999977
vn -0.000001 -0.006840 -0.999977
vn -0.000001 -0.006841 -0.999977
vn 0.000000 -0.006841 -0.999977
vn -0.005799 -0.991744 -0.128100
vn -0.005856 -0.991749 -0.128062
vn -0.005839 -0.991744 -0.128098
vn -0.005861 -0.991740 -0.128131
vn -0.989318 0.001098 0.145771
vn -0.989280 0.001099 0.146026
vn -0.996111 0.000807 0.088103
vn -0.996111 0.000807 0.088103
vn -0.840419 0.000905 -0.541936
vn -0.840419 0.000905 -0.541936
vn -0.840419 0.000905 -0.541936
vn -0.840419 0.000905 -0.541936
vn -0.441950 0.000940 -0.897039
vn -0.441950 0.000940 -0.897039
vn -0.285619 0.000979 -0.958343
vn -0.285662 0.000979 -0.958330
vn -0.054924 0.001008 -0.998490
vn -0.054935 0.001008 -0.998489
vn -0.090630 0.001027 -0.995884
vn -0.090639 0.001027 -0.995883
vn -0.307502 0.001026 -0.951547
vn -0.307515 0.001026 -0.951543
vn -0.415787 0.001016 -0.909462
vn -0.415787 0.001016 -0.909462
vn -0.872825 0.000929 -0.488032
vn -0.872825 0.000929 -0.488032
vn -0.818503 0.003705 -0.574490
vn -0.822343 0.003524 -0.568981
vn -0.487957 0.153959 -0.859182
vn -0.646643 0.069341 -0.759634
vn -0.512496 0.018132 -0.858498
vn -0.492897 0.045107 -0.868918
vn -0.567066 -0.083221 -0.819457
vn -0.566786 -0.083348 -0.819639
vn -0.554087 0.056839 -0.830516
vn -0.554539 0.049510 -0.830683
vn -0.549834 0.110709 -0.827905
vn -0.549834 0.110709 -0.827905
vn 0.495931 -0.865374 -0.071969
vn 0.496128 -0.865424 -0.069987
vn 0.490065 -0.867940 0.080731
vn 0.483789 -0.864471 0.136519
vn 0.372564 -0.855103 0.360549
vn 0.340576 -0.856029 0.388872
vn 0.164717 -0.858125 0.486303
vn 0.148437 -0.859053 0.489892
vn 0.032732 -0.863315 0.503604
vn 0.029814 -0.863519 0.503434
vn 0.048051 -0.865949 0.497818
vn 0.042018 -0.866015 0.498249
vn 0.159654 -0.865302 0.475145
vn 0.152157 -0.865352 0.477508
vn 0.359008 -0.864243 0.352416
vn 0.308775 -0.867200 0.390669
vn 0.454434 -0.853309 0.255643
vn 0.449650 -0.855371 0.257207
vn 0.420870 -0.867131 0.266370
vn 0.420870 -0.867131 0.266370
vn 0.897839 -0.342077 -0.277252
vn 0.897839 -0.342077 -0.277252
vn 0.981152 -0.126833 -0.145788
vn 0.977799 -0.141275 -0.154757
vn 0.998197 -0.001316 -0.060011
vn 0.998204 -0.000971 -0.059898
vn 0.997752 -0.004727 -0.066846
vn 0.997754 -0.003241 -0.066911
vn 0.997737 0.002834 -0.067176
vn 0.997737 0.002834 -0.067176
vn 0.497306 0.864310 -0.075202
vn 0.497061 0.864255 -0.077425
vn 0.485596 0.863415 0.136788
vn 0.491921 0.866875 0.080880
vn 0.341787 0.854949 0.390184
vn 0.373835 0.854019 0.361799
vn 0.148979 0.857987 0.491593
vn 0.165289 0.857055 0.487993
vn 0.029928 0.862477 0.505210
vn 0.032850 0.862272 0.505378
vn 0.042169 0.864987 0.500019
vn 0.048219 0.864921 0.499586
vn 0.152702 0.864320 0.479201
vn 0.160219 0.864269 0.476832
vn 0.309914 0.866178 0.392032
vn 0.360258 0.863207 0.353679
vn 0.406730 0.851012 0.332188
vn 0.413574 0.850444 0.325119
vn 0.335004 0.852097 0.402124
vn 0.335004 0.852097 0.402123
vn -0.452499 0.204235 0.868063
vn -0.452499 0.204235 0.868063
vn -0.451252 0.149298 0.879819
vn -0.450504 0.130532 0.883180
vn -0.443408 0.090812 0.891708
vn -0.443445 0.090603 0.891710
vn -0.440151 -0.051952 0.896420
vn -0.440350 -0.046208 0.896636
vn -0.437186 -0.112070 0.892361
vn -0.437186 -0.112070 0.892361
s 1
g pCylinder4
f 1/1/1 2/2/2 5/3/3 4/4/4
s 2
f 2/63/5 3/64/6 6/65/7 5/66/8
s 3
f 3/87/9 1/88/10 4/89/11 6/90/12
s 4
f 2/27/13 1/28/14 7/29/15
f 3/30/16 2/27/13 7/29/15
f 1/28/14 3/30/16 7/29/15
s 5
f 21/111/17 35/112/18 36/113/19
f 35/112/18 50/114/20 36/113/19
f 50/114/20 21/111/17 36/113/19
s 1
f 4/4/4 5/3/3 22/5/21 8/6/22
f 8/6/22 22/5/21 23/7/23 9/8/24
s off
f 9/8/25 23/7/26 24/9/27 10/10/28
s 6
f 10/31/29 24/32/30 25/33/31 11/34/32
f 11/34/32 25/33/31 26/35/33 12/36/34
f 12/36/34 26/35/33 27/37/35 13/38/36
f 13/38/36 27/37/35 28/39/37 14/40/38
f 14/40/38 28/39/37 29/41/39 15/42/40
s 7
f 15/11/41 29/12/42 30/13/43 16/14/44
f 16/14/44 30/13/43 31/15/45 17/16/46
f 17/43/46 31/44/45 32/45/47 18/46/48
f 18/46/48 32/45/47 33/47/49 19/48/50
f 19/48/50 33/47/49 34/49/51 20/50/52
f 20/50/52 34/49/51 35/51/53 21/52/54
s 2
f 5/66/8 6/65/7 37/67/55 22/68/56
f 22/68/56 37/67/55 38/69/57 23/70/58
f 23/70/58 38/69/57 39/71/59 24/72/60
f 24/72/60 39/71/59 40/73/61 25/74/62
f 25/74/62 40/73/61 41/75/63 26/76/64
f 26/76/64 41/75/63 42/77/65 27/78/66
f 27/78/66 42/77/65 43/79/67 28/80/68
f 28/80/68 43/79/67 44/81/69 29/82/70
f 29/82/70 44/81/69 45/83/71 30/84/72
f 30/84/72 45/83/71 46/85/73 31/86/74
s 8
f 31/17/75 46/18/76 47/19/77 32/20/78
f 32/20/78 47/19/77 48/21/79 33/22/80
f 33/22/80 48/21/79 49/23/81 34/24/82
f 34/24/82 49/23/81 50/25/83 35/26/84
s 3
f 6/90/12 4/89/11 8/91/85 37/92/86
f 37/92/86 8/91/85 9/93/87 38/94/88
f 38/94/88 9/93/87 10/95/89 39/96/90
f 39/96/90 10/95/89 11/97/91 40/98/92
f 40/98/92 11/97/91 12/99/93 41/100/94
f 41/100/94 12/99/93 13/101/95 42/102/96
f 42/102/96 13/101/95 14/103/97 43/104/98
f 43/104/98 14/103/97 15/105/99 44/106/100
f 44/106/100 15/105/99 16/107/101 45/108/102
f 45/108/102 16/107/101 17/109/103 46/110/104
s 9
f 46/53/105 17/54/106 18/55/107 47/56/108
f 47/56/108 18/55/107 19/57/109 48/58/110
f 48/58/110 19/57/109 20/59/111 49/60/112
f 49/60/112 20/59/111 21/61/113 50/62/114
g default
v -141.875325 22.202467 12.365078
v -135.262607 22.202467 12.365078
v -141.875325 23.239306 12.131965
v -135.262607 23.239306 12.131965
v -141.875325 24.561363 2.139392
v -135.262607 24.561363 2.139392
v -141.875325 22.202467 2.139392
v -135.262607 22.202467 2.139392
vt 0.362743 0.549527
vt 0.362743 0.001787
vt 0.489098 0.001787
vt 0.418282 0.537040
vt 0.495272 0.549527
vt 0.495272 0.001787
vt 0.550810 0.014274
vt 0.621626 0.549527
vt 0.627801 0.001787
vt 0.982012 0.001787
vt 0.982012 0.537040
vt 0.627801 0.537040
vt 0.001992 0.001787
vt 0.356203 0.001787
vt 0.356203 0.549527
vt 0.001992 0.549527
vt 0.942470 0.895243
vt 0.942470 0.541032
vt 0.998008 0.541032
vt 0.998008 0.895243
vt 0.809980 0.895243
vt 0.809980 0.541032
vt 0.936334 0.541032
vt 0.936334 0.895243
vn 0.000000 0.219354 0.975645
vn 0.000000 0.219354 0.975645
vn 0.000000 0.219354 0.975645
vn 0.000000 0.219354 0.975645
vn 0.000000 0.991361 0.131161
vn 0.000000 0.991361 0.131161
vn 0.000000 0.991361 0.131161
vn 0.000000 0.991361 0.131161
vn 0.000000 0.000000 -1.000000
vn 0.000000 0.000000 -1.000000
vn 0.000000 0.000000 -1.000000
vn 0.000000 0.000000 -1.000000
vn 0.000000 -1.000000 0.000000
vn 0.000000 -1.000000 0.000000
vn 0.000000 -1.000000 0.000000
vn 0.000000 -1.000000 0.000000
vn 1.000000 0.000000 0.000000
vn 1.000000 0.000000 0.000000
vn 1.000000 0.000000 0.000000
vn 1.000000 0.000000 0.000000
vn -1.000000 -0.000000 0.000000
vn -1.000000 -0.000000 0.000000
vn -1.000000 -0.000000 0.000000
vn -1.000000 -0.000000 0.000000
s off
g pCube18
f 51/131/115 52/132/116 54/133/117 53/134/118
f 53/123/119 54/124/120 56/125/121 55/126/122
f 55/135/123 56/136/124 58/137/125 57/138/126
f 57/127/127 58/128/128 52/129/129 51/130/130
f 52/115/131 58/116/132 56/117/133 54/118/134
f 57/119/135 51/120/136 53/121/137 55/122/138
g default
v -137.851737 25.711450 6.001283
v -139.233984 25.711450 6.001283
v -139.925108 24.815167 5.903803
v -139.233984 23.918877 5.806319
v -137.851737 23.918877 5.806319
v -137.160614 24.815165 5.903803
v -137.851737 25.492840 8.569067
v -139.233984 25.492840 8.569067
v -139.925108 24.596561 8.471586
v -139.233984 23.700276 8.374102
v -137.851737 23.700276 8.374102
v -137.160614 24.596561 8.471586
v -137.851737 24.467210 10.603004
v -139.233984 24.467210 10.603004
v -139.925108 23.879362 9.919434
v -139.233984 23.291520 9.235867
v -137.851737 23.291520 9.235867
v -137.160614 23.879362 9.919434
v -137.851737 23.239615 11.446360
v -139.233984 23.239615 11.446360
v -139.925108 22.651769 10.762792
v -139.233984 22.063923 10.079225
v -137.851737 22.063923 10.079225
v -137.160614 22.651769 10.762792
v -137.851737 25.483921 3.265309
v -139.233984 25.483921 3.265309
v -139.925108 24.815168 3.869953
v -139.233984 24.146404 4.474597
v -137.851737 24.146404 4.474597
v -137.160614 24.815166 3.869955
v -137.851737 24.348659 2.345169
v -139.233984 24.348659 2.345169
v -139.925108 23.679906 2.949813
v -139.233984 23.011142 3.554457
v -137.851737 23.011142 3.554457
v -137.160614 23.679904 2.949814
vt 0.239362 0.862522
vt 0.308481 0.797846
vt 0.427041 0.899810
vt 0.357923 0.964487
vt 0.155398 0.638579
vt 0.250057 0.638579
vt 0.377599 0.733169
vt 0.496160 0.835134
vt 0.161730 0.368075
vt 0.256390 0.368075
vt 0.344717 0.638579
vt 0.216539 0.085080
vt 0.279479 0.155784
vt 0.351050 0.368075
vt 0.345482 0.001925
vt 0.408422 0.072629
vt 0.342419 0.226488
vt 0.471362 0.143333
vt 0.622700 0.733169
vt 0.691818 0.797846
vt 0.573258 0.899810
vt 0.504139 0.835134
vt 0.655582 0.638579
vt 0.750242 0.638579
vt 0.760937 0.862522
vt 0.642376 0.964487
vt 0.649249 0.368075
vt 0.743909 0.368075
vt 0.844901 0.638579
vt 0.657880 0.226488
vt 0.720820 0.155784
vt 0.838569 0.368075
vt 0.528937 0.143333
vt 0.591877 0.072629
vt 0.783760 0.085080
vt 0.654817 0.001925
vt 0.147120 0.598337
vt 0.001992 0.598337
vt 0.001992 0.327833
vt 0.147120 0.327833
vt 0.147120 0.881332
vt 0.001992 0.881332
vt 0.001992 0.103890
vt 0.147120 0.103890
vt 0.147120 0.964487
vt 0.001992 0.964487
vt 0.001992 0.001925
vt 0.147120 0.001925
vt 0.852880 0.226667
vt 0.998008 0.226667
vt 0.998008 0.497171
vt 0.852880 0.497171
vt 0.852880 0.085080
vt 0.998008 0.085080
vt 0.998008 0.591761
vt 0.852880 0.591761
vt 0.852880 0.001925
vt 0.998008 0.001925
vt 0.998008 0.693726
vt 0.852880 0.693726
vn 0.000000 0.996396 0.084829
vn 0.000000 0.996396 0.084829
vn 0.000000 0.996396 0.084829
vn 0.000000 0.996396 0.084829
vn -0.793559 0.606300 0.051617
vn -0.793559 0.606300 0.051617
vn -0.793559 0.606300 0.051617
vn -0.793559 0.606300 0.051617
vn -0.793561 -0.606298 -0.051616
vn -0.793561 -0.606298 -0.051616
vn -0.793561 -0.606298 -0.051616
vn -0.793561 -0.606298 -0.051616
vn 0.000000 -0.996396 -0.084825
vn 0.000000 -0.996396 -0.084825
vn 0.000000 -0.996396 -0.084825
vn 0.000000 -0.996396 -0.084825
vn 0.793561 -0.606298 -0.051616
vn 0.793561 -0.606298 -0.051616
vn 0.793561 -0.606298 -0.051616
vn 0.793561 -0.606298 -0.051616
vn 0.793559 0.606300 0.051617
vn 0.793559 0.606300 0.051617
vn 0.793559 0.606300 0.051617
vn 0.793559 0.606300 0.051617
vn 0.000000 0.892901 0.450253
vn 0.000000 0.892901 0.450253
vn 0.000000 0.892901 0.450253
vn 0.000000 0.892901 0.450253
vn -0.771616 0.568808 0.284721
vn -0.771616 0.568808 0.284721
vn -0.771616 0.568808 0.284721
vn -0.771616 0.568808 0.284721
vn -0.771533 -0.571854 -0.278784
vn -0.771532 -0.571854 -0.278784
vn -0.771533 -0.571854 -0.278784
vn -0.771533 -0.571854 -0.278784
vn 0.000000 -0.903514 -0.428559
vn 0.000000 -0.903514 -0.428559
vn 0.000000 -0.903514 -0.428559
vn 0.000000 -0.903514 -0.428559
vn 0.771533 -0.571854 -0.278784
vn 0.771533 -0.571854 -0.278784
vn 0.771533 -0.571854 -0.278784
vn 0.771533 -0.571854 -0.278784
vn 0.771616 0.568808 0.284721
vn 0.771616 0.568808 0.284720
vn 0.771616 0.568808 0.284721
vn 0.771616 0.568808 0.284721
vn 0.000000 0.566249 0.824235
vn 0.000000 0.566249 0.824235
vn 0.000000 0.566249 0.824235
vn 0.000000 0.566249 0.824235
vn -0.791910 0.345773 0.503309
vn -0.791910 0.345773 0.503309
vn -0.791910 0.345773 0.503309
vn -0.791910 0.345773 0.503309
vn -0.791909 -0.345774 -0.503310
vn -0.791909 -0.345774 -0.503310
vn -0.791909 -0.345774 -0.503309
vn -0.791909 -0.345774 -0.503310
vn 0.000000 -0.566249 -0.824235
vn 0.000000 -0.566249 -0.824235
vn 0.000000 -0.566249 -0.824235
vn 0.000000 -0.566249 -0.824235
vn 0.791909 -0.345774 -0.503310
vn 0.791909 -0.345774 -0.503310
vn 0.791909 -0.345774 -0.503310
vn 0.791909 -0.345774 -0.503309
vn 0.791910 0.345773 0.503309
vn 0.791910 0.345773 0.503309
vn 0.791910 0.345773 0.503309
vn 0.791910 0.345773 0.503309
vn 0.000000 0.996560 -0.082876
vn 0.000000 0.996560 -0.082876
vn 0.000000 0.996560 -0.082876
vn 0.000000 0.996560 -0.082876
vn -0.754164 0.655941 -0.031289
vn -0.754163 0.655941 -0.031289
vn -0.754163 0.655941 -0.031289
vn -0.754163 0.655941 -0.031289
vn -0.741434 -0.669498 -0.045261
vn -0.741434 -0.669498 -0.045261
vn -0.741434 -0.669498 -0.045261
vn -0.741434 -0.669498 -0.045261
vn 0.000000 -0.985717 -0.168412
vn 0.000000 -0.985717 -0.168412
vn 0.000000 -0.985717 -0.168412
vn 0.000000 -0.985717 -0.168412
vn 0.741433 -0.669499 -0.045261
vn 0.741433 -0.669498 -0.045261
vn 0.741433 -0.669498 -0.045261
vn 0.741433 -0.669498 -0.045261
vn 0.754164 0.655940 -0.031289
vn 0.754164 0.655940 -0.031289
vn 0.754164 0.655940 -0.031289
vn 0.754164 0.655940 -0.031289
vn 0.000000 0.629660 -0.776871
vn 0.000000 0.629660 -0.776871
vn 0.000000 0.629660 -0.776871
vn 0.000000 0.629660 -0.776871
vn -0.790097 0.385970 -0.476207
vn -0.790097 0.385970 -0.476207
vn -0.790097 0.385970 -0.476207
vn -0.790097 0.385970 -0.476207
vn -0.790100 -0.385968 0.476205
vn -0.790100 -0.385968 0.476205
vn -0.790100 -0.385968 0.476205
vn -0.790100 -0.385968 0.476205
vn 0.000000 -0.629660 0.776870
vn 0.000000 -0.629660 0.776870
vn 0.000000 -0.629660 0.776870
vn 0.000000 -0.629660 0.776870
vn 0.790099 -0.385969 0.476206
vn 0.790099 -0.385969 0.476206
vn 0.790099 -0.385969 0.476206
vn 0.790099 -0.385969 0.476206
vn 0.790098 0.385970 -0.476206
vn 0.790098 0.385970 -0.476206
vn 0.790098 0.385970 -0.476206
vn 0.790098 0.385970 -0.476206
s off
g pCylinder2
f 59/175/139 60/176/140 66/177/141 65/178/142
f 60/147/143 61/148/144 67/144/145 66/143/146
f 61/148/147 62/152/148 68/149/149 67/144/150
f 62/187/151 63/188/152 69/189/153 68/190/154
f 63/165/155 64/166/156 70/162/157 69/161/158
f 64/166/159 59/170/160 65/167/161 70/162/162
f 65/178/163 66/177/164 72/181/165 71/182/166
f 66/143/167 67/144/168 73/140/169 72/139/170
f 67/144/171 68/149/172 74/145/173 73/140/174
f 68/190/175 69/189/176 75/193/177 74/194/178
f 69/161/179 70/162/180 76/158/181 75/157/182
f 70/162/183 65/167/184 71/163/185 76/158/186
f 71/182/187 72/181/188 78/185/189 77/186/190
f 72/139/191 73/140/192 79/141/193 78/142/194
f 73/140/195 74/145/196 80/146/197 79/141/198
f 74/194/199 75/193/200 81/197/201 80/198/202
f 75/157/203 76/158/204 82/159/205 81/160/206
f 76/158/207 71/163/208 77/164/209 82/159/210
f 60/176/211 59/175/212 83/179/213 84/180/214
f 61/148/215 60/147/216 84/150/217 85/151/218
f 62/152/219 61/148/220 85/151/221 86/155/222
f 63/188/223 62/187/224 86/191/225 87/192/226
f 64/166/227 63/165/228 87/168/229 88/169/230
f 59/170/231 64/166/232 88/169/233 83/173/234
f 84/180/235 83/179/236 89/183/237 90/184/238
f 85/151/239 84/150/240 90/153/241 91/154/242
f 86/155/243 85/151/244 91/154/245 92/156/246
f 87/192/247 86/191/248 92/195/249 93/196/250
f 88/169/251 87/168/252 93/171/253 94/172/254
f 83/173/255 88/169/256 94/172/257 89/174/258
