# This file uses centimeters as units for non-parametric coordinates.

g default
v -99.391156 26.477190 -23.763966
v -102.695526 31.646123 -22.769423
v -98.735048 26.544216 -21.140722
v -102.181501 31.700660 -20.710618
v -98.579862 26.366357 -22.607502
v -103.386674 32.135922 -21.552673
v -101.617092 31.527230 -23.579740
v -101.134500 32.160309 -22.116594
v -100.835606 31.515508 -20.498889
v -100.512127 30.331643 -24.191316
v -99.762585 30.778415 -22.424420
v -99.611829 30.449801 -20.411984
v -99.902319 28.797914 -24.060529
v -98.968742 29.038707 -22.578519
v -99.063901 28.949660 -20.754818
vt 0.000000 0.207635
vt 0.306079 0.207635
vt 0.282424 0.415270
vt 0.000000 0.415270
vt 0.000000 0.000000
vt 0.277167 0.000000
vt 0.795951 0.207635
vt 0.782967 0.000000
vt 1.000000 0.000000
vt 1.000000 0.207635
vt 0.778042 0.415270
vt 1.000000 0.415270
vt 0.594931 0.207635
vt 0.567087 0.000000
vt 0.579951 0.415270
vn 0.960458 0.133888 -0.244119
vn 0.938676 0.246399 -0.241196
vn 0.965093 0.257016 0.050391
vn 0.988411 0.133860 0.071587
vn 0.825442 0.119224 -0.551752
vn 0.819229 0.231831 -0.524518
vn 0.376885 0.919888 -0.108463
vn 0.363647 0.811977 -0.456568
vn -0.135857 0.909947 -0.391841
vn -0.026640 0.999642 0.002414
vn 0.522558 0.829285 0.198039
vn 0.076868 0.929364 0.361074
vn 0.789274 0.577234 -0.209399
vn 0.706950 0.519118 -0.480351
vn 0.833952 0.547862 0.066122
s 1
g polySurface31 pPlane10
f 5/1/1 14/2/2 15/3/3 3/4/4
f 1/5/5 13/6/6 14/2/2 5/1/1
f 8/7/7 7/8/8 2/9/9 6/10/10
f 9/11/11 8/7/7 6/10/10 4/12/12
f 11/13/13 10/14/14 7/8/8 8/7/7
f 12/15/15 11/13/13 8/7/7 9/11/11
f 14/2/2 13/6/6 10/14/14 11/13/13
f 15/3/3 14/2/2 11/13/13 12/15/15
g default
v -98.231312 26.658246 -23.516270
v -103.455692 26.888312 -26.874656
v -99.800631 26.428596 -21.325179
v -104.688960 26.708517 -25.156343
v -98.673875 26.870136 -22.186935
v -104.792699 26.296362 -26.629543
v -102.531694 27.871671 -26.760641
v -103.790422 28.180125 -25.714246
v -104.308278 27.557359 -24.143876
v -100.975751 28.187680 -26.051007
v -102.225063 28.500664 -24.559497
v -103.264807 27.835408 -22.929474
v -99.810727 27.714530 -24.973908
v -100.676639 28.129552 -23.489369
v -101.832080 27.473260 -22.233540
vt 0.000000 0.207635
vt 0.306079 0.207635
vt 0.282424 0.415270
vt 0.000000 0.415270
vt 0.000000 0.000000
vt 0.277167 0.000000
vt 0.795951 0.207635
vt 0.782967 0.000000
vt 1.000000 0.000000
vt 1.000000 0.207635
vt 0.778042 0.415270
vt 1.000000 0.415270
vt 0.594931 0.207635
vt 0.567087 0.000000
vt 0.579951 0.415270
vn 0.343323 0.876597 0.337205
vn 0.256327 0.925028 0.280391
vn 0.066221 0.866142 0.495392
vn 0.145373 0.805612 0.574331
vn 0.515330 0.855589 0.049013
vn 0.416902 0.908768 0.018280
vn -0.464396 0.854730 -0.231889
vn -0.165458 0.883208 -0.438824
vn -0.420760 0.543458 -0.726371
vn -0.709307 0.563522 -0.423470
vn -0.558869 0.822597 0.104884
vn -0.864247 0.496130 -0.083260
vn -0.039308 0.996056 0.079545
vn 0.154426 0.978831 -0.134325
vn -0.185644 0.932304 0.310396
s 1
g pPlane10 polySurface32
f 20/16/16 29/17/17 30/18/18 18/19/19
f 16/20/20 28/21/21 29/17/17 20/16/16
f 23/22/22 22/23/23 17/24/24 21/25/25
f 24/26/26 23/22/22 21/25/25 19/27/27
f 26/28/28 25/29/29 22/23/23 23/22/22
f 27/30/30 26/28/28 23/22/22 24/26/26
f 29/17/17 28/21/21 25/29/29 26/28/28
f 30/18/18 29/17/17 26/28/28 27/30/30
g default
v -98.025133 26.582970 -21.587933
v -94.519526 26.909772 -26.709433
v -100.179514 26.502069 -23.221480
v -96.208970 26.846738 -27.993054
v -99.333395 26.862871 -22.054834
v -94.749337 26.384771 -28.076778
v -94.623086 27.856503 -25.746758
v -95.622972 28.256987 -27.017317
v -97.200116 27.715749 -27.601914
v -95.362976 28.132262 -24.197268
v -96.807614 28.553450 -25.469651
v -98.431665 27.994211 -26.578850
v -96.487804 27.650441 -23.081963
v -97.932240 28.156937 -23.966817
v -99.179003 27.597628 -25.181570
vt 0.000000 0.207635
vt 0.306079 0.207635
vt 0.282424 0.415270
vt 0.000000 0.415270
vt 0.000000 0.000000
vt 0.277167 0.000000
vt 0.795951 0.207635
vt 0.782967 0.000000
vt 1.000000 0.000000
vt 1.000000 0.207635
vt 0.778042 0.415270
vt 1.000000 0.415270
vt 0.594931 0.207635
vt 0.567087 0.000000
vt 0.579951 0.415270
vn -0.314555 0.873154 0.372367
vn -0.253680 0.923091 0.289048
vn -0.465408 0.880395 0.091104
vn -0.548609 0.819536 0.165495
vn -0.032105 0.834126 0.550638
vn 0.003200 0.890262 0.455438
vn 0.275174 0.864477 -0.420664
vn 0.474781 0.872485 -0.115557
vn 0.756719 0.533425 -0.377934
vn 0.462715 0.577014 -0.673015
vn -0.059840 0.848960 -0.525059
vn 0.124642 0.528995 -0.839422
vn -0.042419 0.999098 0.002036
vn 0.165331 0.965692 0.200262
vn -0.271349 0.950272 -0.152813
s 1
g pPlane10 polySurface33
f 35/31/31 44/32/32 45/33/33 33/34/34
f 31/35/35 43/36/36 44/32/32 35/31/31
f 38/37/37 37/38/38 32/39/39 36/40/40
f 39/41/41 38/37/37 36/40/40 34/42/42
f 41/43/43 40/44/44 37/38/38 38/37/37
f 42/45/45 41/43/43 38/37/37 39/41/41
f 44/32/32 43/36/36 40/44/44 41/43/43
f 45/33/33 44/32/32 41/43/43 42/45/45
g default
v -97.996075 26.477190 -21.630929
v -96.033961 31.646123 -24.469605
v -100.145335 26.544216 -23.271834
v -97.720057 31.700660 -25.758007
v -99.351590 26.366357 -22.028654
v -96.252844 32.135922 -25.851726
v -96.371311 31.527230 -23.163532
v -97.661247 32.160309 -24.006001
v -98.904032 31.515508 -25.083866
v -96.853378 30.331643 -21.996234
v -98.541441 30.778415 -22.909569
v -99.914695 30.449801 -24.388350
v -97.411566 28.797914 -21.718031
v -99.065740 29.038707 -22.293903
v -100.129059 28.949660 -23.778590
vt 0.000000 0.207635
vt 0.306079 0.207635
vt 0.282424 0.415270
vt 0.000000 0.415270
vt 0.000000 0.000000
vt 0.277167 0.000000
vt 0.795951 0.207635
vt 0.782967 0.000000
vt 1.000000 0.000000
vt 1.000000 0.207635
vt 0.778042 0.415270
vt 1.000000 0.415270
vt 0.594931 0.207635
vt 0.567087 0.000000
vt 0.579951 0.415270
vn -0.598360 0.133888 0.789961
vn -0.583159 0.246399 0.774088
vn -0.785708 0.257016 0.562677
vn -0.817156 0.133860 0.560658
vn -0.300925 0.119224 0.946166
vn -0.313059 0.231831 0.921004
vn -0.226893 0.919888 0.319885
vn 0.000614 0.811977 0.583690
vn 0.350625 0.909947 0.221493
vn 0.019315 0.999642 -0.018505
vn -0.531951 0.829285 0.171212
vn -0.285328 0.929364 -0.234246
vn -0.486230 0.577234 0.656035
vn -0.252860 0.519118 0.816442
vn -0.693029 0.547862 0.468571
s 1
g pPlane10 polySurface29
f 50/46/46 59/47/47 60/48/48 48/49/49
f 46/50/50 58/51/51 59/47/47 50/46/46
f 53/52/52 52/53/53 47/54/54 51/55/55
f 54/56/56 53/52/52 51/55/55 49/57/57
f 56/58/58 55/59/59 52/53/53 53/52/52
f 57/60/60 56/58/58 53/52/52 54/56/56
f 59/47/47 58/51/51 55/59/59 56/58/58
f 60/48/48 59/47/47 56/58/58 57/60/60
g default
v -99.143282 26.500832 -20.357409
v -89.907729 29.194456 -20.808489
v -99.143282 26.500832 -24.548979
v -89.904752 29.195877 -24.097899
v -99.887314 26.835154 -22.396113
v -88.298693 28.783591 -22.396113
v -91.488244 30.307124 -19.991497
v -91.029890 31.125818 -22.396113
v -91.590972 30.210301 -24.914891
v -94.119449 30.114054 -19.441813
v -94.075432 30.885723 -22.396113
v -94.045903 30.096534 -25.464575
v -96.318386 28.844048 -19.808692
v -96.767750 29.624903 -22.396113
v -96.264812 28.935021 -25.097696
vt 0.000000 0.207635
vt 0.306079 0.207635
vt 0.282424 0.415270
vt 0.000000 0.415270
vt 0.000000 0.000000
vt 0.277167 0.000000
vt 0.795951 0.207635
vt 0.782967 0.000000
vt 1.000000 0.000000
vt 1.000000 0.207635
vt 0.778042 0.415270
vt 1.000000 0.415270
vt 0.594931 0.207635
vt 0.567087 0.000000
vt 0.579951 0.415270
vn -0.672868 0.739762 0.000461
vn -0.583782 0.811910 0.000122
vn -0.547008 0.785536 -0.289336
vn -0.639974 0.701982 -0.312497
vn -0.633869 0.698597 0.331923
vn -0.552207 0.776218 0.304227
vn 0.291318 0.956584 -0.009023
vn 0.172533 0.926482 0.334460
vn 0.619597 0.680934 0.390421
vn 0.662853 0.748465 -0.020650
vn 0.176504 0.923947 -0.339366
vn 0.601480 0.696185 -0.391852
vn -0.254129 0.967167 -0.002674
vn -0.276164 0.918959 0.281509
vn -0.259434 0.924283 -0.279989
s 1
g pPlane10 polySurface28
f 65/61/61 74/62/62 75/63/63 63/64/64
f 61/65/65 73/66/66 74/62/62 65/61/61
f 68/67/67 67/68/68 62/69/69 66/70/70
f 69/71/71 68/67/67 66/70/70 64/72/72
f 71/73/73 70/74/74 67/68/68 68/67/67
f 72/75/75 71/73/73 68/67/67 69/71/71
f 74/62/62 73/66/66 70/74/74 71/73/73
f 75/63/63 74/62/62 71/73/73 72/75/75
g default
v -96.133146 21.971739 -23.478454
v -97.338412 21.971739 -25.137360
v -99.288573 21.971739 -25.771006
v -101.238734 21.971739 -25.137360
v -102.443999 21.971739 -23.478454
v -102.443999 21.971739 -21.427934
v -101.238733 21.971739 -19.769029
v -99.288573 21.971739 -19.135384
v -97.338413 21.971739 -19.769029
v -96.133148 21.971739 -21.427934
v -99.288573 26.229048 -22.453194
v -95.267877 27.391784 -23.759597
v -95.609741 27.810523 -23.648519
v -96.803646 27.391784 -25.873402
v -97.014929 27.810523 -25.582595
v -99.288573 27.391784 -26.680803
v -99.288573 27.810523 -26.321347
v -101.773500 27.391784 -25.873401
v -101.562216 27.810523 -25.582595
v -103.309268 27.391784 -23.759596
v -102.967404 27.810523 -23.648518
v -103.309268 27.391784 -21.146791
v -102.967404 27.810523 -21.257869
v -101.773499 27.391784 -19.032987
v -101.562216 27.810523 -19.323794
v -99.288573 27.391784 -18.225585
v -99.288573 27.810523 -18.585042
v -96.803648 27.391784 -19.032987
v -97.014931 27.810523 -19.323794
v -95.267879 27.391784 -21.146791
v -95.609743 27.810523 -21.257869
v -95.946802 27.007659 -23.539001
v -95.946803 27.007659 -21.367387
v -97.223246 27.007659 -19.610516
v -99.288573 27.007659 -18.939450
v -101.353900 27.007659 -19.610516
v -102.630343 27.007659 -21.367387
v -102.630343 27.007659 -23.539000
v -101.353900 27.007659 -25.295872
v -99.288573 27.007659 -25.966938
v -97.223245 27.007659 -25.295873
vt 0.625000 0.661479
vt 0.624392 0.684030
vt 0.600641 0.684030
vt 0.600000 0.661479
vt 0.375642 0.684030
vt 0.375000 0.661479
vt 0.400000 0.661479
vt 0.399392 0.684030
vt 0.400642 0.684030
vt 0.425000 0.661479
vt 0.424392 0.684030
vt 0.425642 0.684030
vt 0.450000 0.661479
vt 0.449392 0.684030
vt 0.450642 0.684030
vt 0.475000 0.661479
vt 0.474392 0.684030
vt 0.475642 0.684030
vt 0.500000 0.661479
vt 0.499392 0.684030
vt 0.500642 0.684030
vt 0.525000 0.661479
vt 0.524392 0.684030
vt 0.525642 0.684030
vt 0.550000 0.661479
vt 0.549392 0.684030
vt 0.550641 0.684030
vt 0.575000 0.661479
vt 0.574392 0.684030
vt 0.575641 0.684030
vt 0.599392 0.684030
vt 0.375000 0.312500
vt 0.400000 0.312500
vt 0.425000 0.312500
vt 0.450000 0.312500
vt 0.475000 0.312500
vt 0.500000 0.312500
vt 0.525000 0.312500
vt 0.550000 0.312500
vt 0.575000 0.312500
vt 0.600000 0.312500
vt 0.625000 0.312500
vt 0.566872 0.862041
vt 0.633744 0.886581
vt 0.582658 0.956894
vt 0.541329 0.897197
vt 0.500000 0.910626
vt 0.500000 0.983752
vt 0.458671 0.897197
vt 0.417342 0.956894
vt 0.433128 0.862041
vt 0.366256 0.886581
vt 0.433128 0.818585
vt 0.366256 0.799669
vt 0.458671 0.783428
vt 0.417342 0.729356
vt 0.500000 0.769999
vt 0.500000 0.702498
vt 0.541329 0.783428
vt 0.582658 0.729356
vt 0.566872 0.818585
vt 0.633744 0.799669
vt 0.500000 0.837500
vn 0.721638 0.651353 -0.234474
vn 0.721638 0.651352 -0.234474
vn 0.721638 0.651353 0.234475
vn 0.721638 0.651353 0.234475
vn 0.445997 0.651353 -0.613862
vn 0.445997 0.651353 -0.613862
vn -0.000000 0.651353 -0.758775
vn -0.000000 0.651353 -0.758775
vn -0.445997 0.651353 -0.613862
vn -0.445997 0.651353 -0.613862
vn -0.721638 0.651353 -0.234474
vn -0.721638 0.651353 -0.234474
vn -0.721638 0.651353 0.234475
vn -0.721638 0.651353 0.234475
vn -0.445997 0.651353 0.613862
vn -0.445997 0.651353 0.613862
vn 0.000000 0.651353 0.758775
vn -0.000000 0.651353 0.758775
vn 0.445997 0.651353 0.613862
vn 0.445997 0.651353 0.613862
vn 0.579675 -0.165542 -0.797855
vn 0.937935 -0.165542 -0.304753
vn 0.937935 -0.165542 -0.304753
vn 0.579675 -0.165542 -0.797855
vn -0.000000 -0.165542 -0.986203
vn -0.000000 -0.165542 -0.986203
vn -0.579675 -0.165542 -0.797855
vn -0.579676 -0.165542 -0.797855
vn -0.937935 -0.165542 -0.304753
vn -0.937935 -0.165542 -0.304753
vn -0.937935 -0.165542 0.304753
vn -0.937935 -0.165542 0.304753
vn -0.579675 -0.165542 0.797855
vn -0.579675 -0.165542 0.797855
vn 0.000000 -0.165542 0.986203
vn 0.000000 -0.165542 0.986203
vn 0.579676 -0.165542 0.797855
vn 0.579675 -0.165542 0.797855
vn 0.937934 -0.165542 0.304754
vn 0.937934 -0.165542 0.304754
vn -0.870057 0.403834 0.282699
vn -0.870057 0.403834 0.282699
vn -0.537725 0.403834 0.740115
vn -0.537725 0.403834 0.740115
vn 0.000000 0.403835 0.914832
vn 0.000000 0.403835 0.914832
vn 0.537725 0.403834 0.740115
vn 0.537725 0.403834 0.740115
vn 0.870057 0.403834 0.282699
vn 0.870057 0.403834 0.282699
vn 0.870057 0.403833 -0.282699
vn 0.870057 0.403834 -0.282699
vn 0.537725 0.403834 -0.740115
vn 0.537725 0.403834 -0.740115
vn -0.000000 0.403834 -0.914832
vn 0.000000 0.403834 -0.914832
vn -0.537725 0.403834 -0.740115
vn -0.537725 0.403834 -0.740115
vn -0.870057 0.403833 -0.282699
vn -0.870057 0.403833 -0.282699
vn 0.000000 1.000000 0.000000
vn -0.205754 0.976318 0.066853
vn -0.127163 0.976318 0.175025
vn -0.205754 0.976318 -0.066853
vn -0.127163 0.976318 -0.175025
vn -0.000000 0.976318 -0.216342
vn 0.127163 0.976318 -0.175025
vn 0.205754 0.976318 -0.066853
vn 0.205754 0.976318 0.066853
vn 0.127163 0.976318 0.175025
vn 0.000000 0.976318 0.216342
s 1
g pPlane10 polySurface27
f 87/76/76 88/77/77 106/78/78 105/79/79
f 88/80/77 87/81/76 89/82/80 90/83/81
f 90/84/81 89/82/80 91/85/82 92/86/83
f 92/87/83 91/85/82 93/88/84 94/89/85
f 94/90/85 93/88/84 95/91/86 96/92/87
f 96/93/87 95/91/86 97/94/88 98/95/89
f 98/96/89 97/94/88 99/97/90 100/98/91
f 100/99/91 99/97/90 101/100/92 102/101/93
f 102/102/93 101/100/92 103/103/94 104/104/95
f 104/105/95 103/103/94 105/79/79 106/106/78
s 2
f 89/82/96 87/81/97 76/107/98 77/108/99
f 91/85/100 89/82/96 77/108/99 78/109/101
f 93/88/102 91/85/100 78/109/101 79/110/103
f 95/91/104 93/88/102 79/110/103 80/111/105
f 97/94/106 95/91/104 80/111/105 81/112/107
f 99/97/108 97/94/106 81/112/107 82/113/109
f 101/100/110 99/97/108 82/113/109 83/114/111
f 103/103/112 101/100/110 83/114/111 84/115/113
f 105/79/114 103/103/112 84/115/113 85/116/115
f 87/76/97 105/79/114 85/116/115 76/117/98
s 3
f 107/118/116 88/119/117 90/120/118 116/121/119
f 115/122/120 116/121/119 90/120/118 92/123/121
f 114/124/122 115/122/120 92/123/121 94/125/123
f 113/126/124 114/124/122 94/125/123 96/127/125
f 112/128/126 113/126/124 96/127/125 98/129/127
f 111/130/128 112/128/126 98/129/127 100/131/129
f 110/132/130 111/130/128 100/131/129 102/133/131
f 109/134/132 110/132/130 102/133/131 104/135/133
f 108/136/134 109/134/132 104/135/133 106/137/135
f 107/118/116 108/136/134 106/137/135 88/119/117
s 4
f 86/138/136 107/118/137 116/121/138
f 86/138/136 108/136/139 107/118/137
f 86/138/136 109/134/140 108/136/139
f 86/138/136 110/132/141 109/134/140
f 86/138/136 111/130/142 110/132/141
f 86/138/136 112/128/143 111/130/142
f 86/138/136 113/126/144 112/128/143
f 86/138/136 114/124/145 113/126/144
f 86/138/136 115/122/146 114/124/145
f 86/138/136 116/121/138 115/122/146
g default
v -100.246025 26.477190 -21.794997
v -98.415489 31.646123 -18.869743
v -97.888572 26.544216 -23.119497
v -96.565045 31.700660 -19.908376
v -99.344371 26.366357 -22.882484
v -97.059570 32.135922 -18.523839
v -99.481460 31.527230 -19.696386
v -98.197314 32.160309 -20.547655
v -96.715646 31.515508 -21.262473
v -100.362717 30.331643 -20.601018
v -98.855947 30.778415 -21.789874
v -96.954459 30.449801 -22.465865
v -100.397331 28.797914 -21.223732
v -99.213888 29.038707 -22.515004
v -97.429621 28.949660 -22.904021
vt 0.000000 0.207635
vt 0.306079 0.207635
vt 0.282424 0.415270
vt 0.000000 0.415270
vt 0.000000 0.000000
vt 0.277167 0.000000
vt 0.795951 0.207635
vt 0.782967 0.000000
vt 1.000000 0.000000
vt 1.000000 0.207635
vt 0.778042 0.415270
vt 1.000000 0.415270
vt 0.594931 0.207635
vt 0.567087 0.000000
vt 0.579951 0.415270
vn -0.488703 0.133888 -0.862116
vn -0.480140 0.246399 -0.841875
vn -0.205834 0.257016 -0.944233
vn -0.191535 0.133860 -0.972314
vn -0.749855 0.119224 -0.650771
vn -0.721946 0.231831 -0.651958
vn -0.203990 0.919888 -0.334955
vn -0.536289 0.811977 -0.230409
vn -0.342160 0.909947 0.234357
vn 0.009352 0.999642 0.025061
vn 0.053263 0.829285 -0.556281
vn 0.328034 0.929363 -0.169344
vn -0.410079 0.577234 -0.706142
vn -0.649741 0.519118 -0.555296
vn -0.156084 0.547862 -0.821879
s 1
g pPlane10 polySurface30
f 121/139/147 130/140/148 131/141/149 119/142/150
f 117/143/151 129/144/152 130/140/148 121/139/147
f 124/145/153 123/146/154 118/147/155 122/148/156
f 125/149/157 124/145/153 122/148/156 120/150/158
f 127/151/159 126/152/160 123/146/154 124/145/153
f 128/153/161 127/151/159 124/145/153 125/149/157
f 130/140/148 129/144/152 126/152/160 127/151/159
f 131/141/149 130/140/148 127/151/159 128/153/161
g default
v -100.873136 26.517503 -22.481727
v -100.258615 27.157616 -14.235153
v -97.264789 26.536871 -22.582072
v -97.426827 27.173487 -14.311141
v -99.136107 26.940212 -23.098285
v -98.852832 26.534265 -12.990157
v -101.000023 28.371009 -15.350486
v -98.918494 28.991152 -14.877132
v -96.764221 28.330306 -15.572019
v -101.537443 28.670784 -17.588304
v -98.992833 29.327064 -17.485510
v -96.350913 28.670847 -17.673620
v -101.275718 27.990689 -19.674274
v -99.058962 28.740218 -19.976757
v -96.721293 28.082337 -19.739670
vt 0.000000 0.207635
vt 0.306079 0.207635
vt 0.282424 0.415270
vt 0.000000 0.415270
vt 0.000000 0.000000
vt 0.277167 0.000000
vt 0.795951 0.207635
vt 0.782967 0.000000
vt 1.000000 0.000000
vt 1.000000 0.207635
vt 0.778042 0.415270
vt 1.000000 0.415270
vt 0.594931 0.207635
vt 0.567087 0.000000
vt 0.579951 0.415270
vn -0.019171 0.862094 -0.506386
vn -0.016277 0.914424 -0.404431
vn 0.274094 0.882617 -0.381915
vn 0.294576 0.820047 -0.490661
vn -0.349414 0.812023 -0.467470
vn -0.319382 0.871380 -0.372414
vn 0.017702 0.876470 0.481131
vn -0.329020 0.869544 0.368291
vn -0.372415 0.537176 0.756802
vn 0.039747 0.596597 0.801556
vn 0.344647 0.869863 0.352925
vn 0.409038 0.560018 0.720463
vn -0.004080 0.998734 -0.050133
vn -0.288795 0.954551 -0.073687
vn 0.272955 0.959341 -0.071836
s 1
g pPlane10 polySurface24
f 136/154/162 145/155/163 146/156/164 134/157/165
f 132/158/166 144/159/167 145/155/163 136/154/162
f 139/160/168 138/161/169 133/162/170 137/163/171
f 140/164/172 139/160/168 137/163/171 135/165/173
f 142/166/174 141/167/175 138/161/169 139/160/168
f 143/168/176 142/166/174 139/160/168 140/164/172
f 145/155/163 144/159/167 141/167/175 142/166/174
f 146/156/164 145/155/163 142/166/174 143/168/176
g default
v -98.552896 27.914208 -21.799398
v -98.331526 30.200513 -31.579604
v -101.150195 26.758738 -22.285638
v -101.505203 29.336192 -31.610453
v -99.929087 27.218167 -21.668946
v -99.744795 29.400861 -33.204900
v -97.846258 31.474638 -29.984407
v -100.378632 31.635723 -30.457337
v -102.571059 30.084547 -29.924101
v -97.281776 31.409261 -27.350065
v -100.334674 31.376569 -27.413674
v -103.086909 29.807933 -27.474781
v -97.315282 30.067647 -25.163337
v -100.019785 30.135912 -24.730419
v -102.441239 28.763915 -25.261096
vt 0.000000 0.207635
vt 0.306079 0.207635
vt 0.282424 0.415270
vt 0.000000 0.415270
vt 0.000000 0.000000
vt 0.277167 0.000000
vt 0.795951 0.207635
vt 0.782967 0.000000
vt 1.000000 0.000000
vt 1.000000 0.207635
vt 0.778042 0.415270
vt 1.000000 0.415270
vt 0.594931 0.207635
vt 0.567087 0.000000
vt 0.579951 0.415270
vn -0.302746 0.711981 0.633584
vn -0.247410 0.792645 0.557227
vn -0.492228 0.695104 0.523967
vn -0.500464 0.611312 0.613052
vn -0.036241 0.787593 0.615129
vn 0.006201 0.848288 0.529500
vn -0.258679 0.923079 -0.284624
vn 0.079856 0.983365 -0.163148
vn 0.201306 0.765253 -0.611444
vn -0.212762 0.722605 -0.657704
vn -0.569497 0.803615 -0.172848
vn -0.557489 0.573921 -0.599851
vn -0.258786 0.930028 0.260917
vn 0.027919 0.958115 0.285019
vn -0.515060 0.815625 0.263569
s 1
g pPlane10 polySurface26
f 151/169/177 160/170/178 161/171/179 149/172/180
f 147/173/181 159/174/182 160/170/178 151/169/177
f 154/175/183 153/176/184 148/177/185 152/178/186
f 155/179/187 154/175/183 152/178/186 150/180/188
f 157/181/189 156/182/190 153/176/184 154/175/183
f 158/183/191 157/181/189 154/175/183 155/179/187
f 160/170/178 159/174/182 156/182/190 157/181/189
f 161/171/179 160/170/178 157/181/189 158/183/191
g default
v -100.146939 25.560608 -23.934342
v -107.910937 28.875645 -19.299108
v -97.829920 27.447350 -20.994804
v -106.095314 30.357794 -16.991085
v -98.489880 26.718034 -23.076326
v -108.245096 29.349476 -17.076008
v -107.320774 29.375228 -21.249919
v -106.532711 31.221440 -19.627272
v -104.496081 31.497287 -17.818054
v -105.461917 28.752125 -23.098989
v -104.025954 30.771822 -21.314574
v -102.188301 31.453250 -18.825029
v -103.219513 27.617059 -23.614824
v -101.590326 29.441547 -22.380562
v -100.358118 30.082867 -19.911188
vt 0.000000 0.207635
vt 0.306079 0.207635
vt 0.282424 0.415270
vt 0.000000 0.415270
vt 0.000000 0.000000
vt 0.277167 0.000000
vt 0.795951 0.207635
vt 0.782967 0.000000
vt 1.000000 0.000000
vt 1.000000 0.207635
vt 0.778042 0.415270
vt 1.000000 0.415270
vt 0.594931 0.207635
vt 0.567087 0.000000
vt 0.579951 0.415270
vn 0.387535 0.605734 -0.694912
vn 0.300758 0.676973 -0.671753
vn 0.436627 0.786653 -0.436501
vn 0.541913 0.715545 -0.440824
vn 0.181475 0.422936 -0.887802
vn 0.114662 0.510782 -0.852030
vn -0.430324 0.877611 -0.211235
vn -0.518082 0.687015 -0.509511
vn -0.858183 0.478034 -0.187097
vn -0.679983 0.726497 0.099124
vn -0.148276 0.988375 -0.033603
vn -0.414339 0.842321 0.344701
vn 0.003895 0.841895 -0.539627
vn -0.125326 0.669384 -0.732270
vn 0.170451 0.928162 -0.330849
s 1
g pPlane10 polySurface25
f 166/184/192 175/185/193 176/186/194 164/187/195
f 162/188/196 174/189/197 175/185/193 166/184/192
f 169/190/198 168/191/199 163/192/200 167/193/201
f 170/194/202 169/190/198 167/193/201 165/195/203
f 172/196/204 171/197/205 168/191/199 169/190/198
f 173/198/206 172/196/204 169/190/198 170/194/202
f 175/185/193 174/189/197 171/197/205 172/196/204
f 176/186/194 175/185/193 172/196/204 173/198/206
