# This file uses centimeters as units for non-parametric coordinates.

g default
v 49.821159 0.000000 86.969063
v 53.025575 0.000000 93.377899
v 60.807728 0.991598 92.462349
v 58.747745 0.991598 85.710190
v 50.278932 0.000000 79.186913
v 57.488868 0.991598 80.331345
v 58.976632 0.991598 74.952507
v 54.170009 0.000000 71.748093
v 66.529898 0.991598 73.350296
v 65.385463 -0.000000 67.513687
v 76.486475 0.991598 75.639168
v 77.630909 0.000000 69.688110
v 79.347560 0.991598 79.759125
v 85.756391 0.000000 78.958031
v 86.671938 0.991598 89.257935
v 91.135233 0.000000 83.306877
v 92.279667 0.991598 91.432358
v 97.086288 0.000000 89.486824
v 96.399629 0.000000 95.666763
v 90.906345 0.991598 93.835670
v 87.015269 0.991598 95.552322
v 87.816374 0.000000 99.557838
v 80.263107 0.991598 94.865662
v 80.263107 0.000000 99.901169
v 60.349953 0.000000 98.756737
v 65.843237 0.991598 94.293442
v 71.336521 0.000000 99.443398
v 73.625389 0.991598 95.208992
v 64.241030 1.814270 79.988014
v 67.903219 1.814270 86.511292
v 88.385166 0.000000 81.083420
v 83.338488 0.991598 84.083916
v 73.282059 1.814270 89.830147
v 80.148664 1.814270 89.257935
v 72.170628 -0.000000 68.718529
v 71.159029 0.991598 74.618553
v 71.508682 1.814270 80.465607
v 76.737275 1.814270 84.631218
vt 0.150075 0.812734
vt 0.110471 0.661455
vt 0.251115 0.564724
vt 0.314439 0.705177
vt 0.371154 0.811567
vt 0.269534 0.933877
vt 0.472944 0.878449
vt 0.440398 1.000000
vt 0.619950 0.796100
vt 0.685368 0.908177
vt 0.779388 0.790805
vt 0.677675 0.708700
vt 0.750423 0.615319
vt 0.855050 0.696351
vt 0.738110 0.506545
vt 0.855050 0.427329
vt 0.880764 0.278584
vt 0.867617 0.354634
vt 0.741394 0.378158
vt 0.721671 0.245290
vt 0.782421 0.128940
vt 0.889529 0.091554
vt 0.725311 0.109249
vt 0.789362 0.000000
vt 0.636760 0.137042
vt 0.592528 0.059597
vt 0.535828 0.245435
vt 0.463632 0.162608
vt 0.153298 0.467819
vt 0.307413 0.462240
vt 0.421957 0.335276
vt 0.323722 0.298520
vt 0.486704 0.720229
vt 0.599104 0.607853
vt 0.452967 0.560487
vt 0.624988 0.464276
vt 0.493498 0.428646
vt 0.614418 0.339269
vn -0.117007 0.992790 0.026025
vn -0.106596 0.991999 0.067636
vn -0.086634 0.992471 0.086575
vn -0.104103 0.993859 0.037512
vn -0.113971 0.993308 -0.018675
vn -0.130174 0.991282 -0.020371
vn -0.084815 0.989342 -0.118358
vn -0.104787 0.988256 -0.111224
vn -0.015226 0.988785 -0.148569
vn -0.022716 0.984352 -0.174743
vn 0.032852 0.986018 -0.163368
vn 0.034398 0.989617 -0.139556
vn 0.094156 0.987773 -0.124252
vn 0.082161 0.986252 -0.143373
vn 0.118173 0.986130 -0.116543
vn 0.136270 0.982530 -0.126747
vn 0.105712 0.987551 -0.116478
vn 0.119855 0.986978 -0.107285
vn 0.118143 0.987769 -0.101758
vn 0.082135 0.995614 -0.044799
vn 0.109480 0.992185 -0.059851
vn 0.127285 0.988919 -0.076408
vn 0.084245 0.990459 0.109058
vn 0.153396 0.981055 0.118323
vn 0.041303 0.988409 0.146087
vn 0.041528 0.975015 0.218223
vn 0.018008 0.987987 0.153484
vn -0.003246 0.977349 0.211611
vn -0.065374 0.983759 0.167168
vn -0.046026 0.989212 0.139071
vn -0.011410 0.985027 0.172023
vn -0.012533 0.978106 0.207732
vn -0.053779 0.997938 -0.035045
vn 0.028033 0.997741 -0.061047
vn -0.041094 0.998155 0.044693
vn 0.054515 0.997158 -0.052004
vn -0.012789 0.996507 0.082522
vn 0.057143 0.997978 0.027820
s 1
g polySurface21
f 1/1/1 2/2/2 3/3/3 4/4/4
f 6/5/5 5/6/6 1/1/1 4/4/4
f 6/5/5 7/7/7 8/8/8 5/6/6
f 7/7/7 9/9/9 10/10/10 8/8/8
f 35/11/11 36/12/12 11/13/13 12/14/14
f 11/13/13 13/15/15 14/16/16 12/14/14
f 16/17/17 31/18/18 32/19/19 15/20/20
f 15/20/20 17/21/21 18/22/22 16/17/17
f 20/23/23 19/24/24 18/22/22 17/21/21
f 20/23/23 21/25/25 22/26/26 19/24/24
f 21/25/25 23/27/27 24/28/28 22/26/26
f 3/3/3 2/2/2 25/29/29 26/30/30
f 28/31/31 26/30/30 25/29/29 27/32/32
f 23/27/27 28/31/31 27/32/32 24/28/28
f 6/5/5 29/33/33 9/9/9 7/7/7
f 11/13/13 36/12/12 37/34/34 13/15/15
f 29/33/33 6/5/5 4/4/4 30/35/35
f 32/19/19 31/18/18 14/16/16 13/15/15
f 13/15/15 37/34/34 38/36/36 32/19/19
f 26/30/30 30/35/35 4/4/4 3/3/3
f 28/31/31 33/37/37 30/35/35 26/30/30
f 28/31/31 23/27/27 34/38/38 33/37/37
f 20/23/23 17/21/21 15/20/20 21/25/25
f 15/20/20 34/38/38 23/27/27 21/25/25
f 9/9/9 36/12/12 35/11/11 10/10/10
f 37/34/34 36/12/12 9/9/9 29/33/33
f 38/36/36 37/34/34 29/33/33 30/35/35
f 30/35/35 33/37/37 34/38/38 38/36/36
f 34/38/38 15/20/20 32/19/19 38/36/36
