# This file uses centimeters as units for non-parametric coordinates.

g default
v -101.619843 -0.000002 93.634171
v -101.619843 -0.000002 58.086227
v -105.545013 48.354076 60.610794
v -101.619843 27.414995 60.610794
v -101.619843 -0.000002 60.610794
v -101.619843 43.841263 60.610794
v -101.619843 45.682007 55.767056
v -105.766190 49.241241 52.992657
v -101.619843 43.841263 70.762917
v -101.619843 27.414995 70.257988
v -101.619843 -0.000002 70.762917
v -105.545013 48.354076 70.762917
v -101.619843 43.841263 77.343925
v -101.619843 27.414995 76.511688
v -101.619843 -0.000002 77.343933
v -105.545013 48.354076 77.343925
v -103.889038 27.236881 76.511688
v -103.889038 27.236881 70.257988
v -103.889038 42.759583 77.343925
v -103.889038 42.759583 70.762917
v -103.889038 -0.000002 70.762917
v -103.889038 -0.000002 77.343933
v -107.329559 47.024147 77.343925
v -107.329559 47.024147 70.762917
v -106.598389 46.041710 93.634171
v -105.545013 48.354076 91.321808
v -103.932281 42.976349 93.634171
v -101.619843 43.841263 91.321808
v -101.619843 23.554096 93.634171
v -103.932281 25.866467 95.946533
v -103.932281 28.178839 93.634171
v -101.619843 26.075169 91.326508
v -103.932281 23.554096 116.760216
v -103.932281 25.866467 114.447853
v -101.619843 23.554096 114.447853
v -101.619843 -0.000002 114.447853
v -103.932281 -0.000002 116.760216
v -108.843536 28.178839 93.634171
v -108.843536 25.866467 95.946533
v -108.843536 33.130947 104.845642
v -108.843536 30.818579 107.158020
v -101.619843 39.601654 55.556068
v -102.917755 39.341003 56.810036
v -102.917755 40.862167 55.782978
v -101.619843 27.419456 56.811230
v -101.619843 26.152838 58.086224
v -101.619843 27.414995 59.348381
v -102.887115 27.414995 58.086224
v -102.887115 27.462349 44.550926
v -101.619843 27.505707 45.818214
v -102.813354 46.763561 44.709709
v -102.814102 45.845985 43.293064
v -101.619843 45.217560 44.704533
v -102.887115 -0.000002 44.550926
v -101.619843 -0.000002 45.818214
v -109.965179 27.008102 94.341881
v -109.965179 31.960211 105.553360
v -138.380157 -0.000002 93.634171
v -138.380157 -0.000002 58.086227
v -134.454987 48.354076 60.610794
v -138.380157 27.414995 60.610794
v -138.380157 -0.000002 60.610794
v -138.380157 43.841263 60.610794
v -138.380157 45.682007 55.767056
v -134.233810 49.241241 52.992657
v -138.380157 43.841263 70.762917
v -138.380157 27.414995 70.257988
v -138.380157 -0.000002 70.762917
v -134.454987 48.354076 70.762917
v -138.380157 43.841263 77.343925
v -138.380157 27.414995 76.511688
v -138.380157 -0.000002 77.343933
v -134.454987 48.354076 77.343925
v -136.110962 27.236881 76.511688
v -136.110962 27.236881 70.257988
v -136.110962 42.759583 77.343925
v -136.110962 42.759583 70.762917
v -136.110962 -0.000002 70.762917
v -136.110962 -0.000002 77.343933
v -132.670441 47.024147 77.343925
v -132.670441 47.024147 70.762917
v -133.401611 46.041710 93.634171
v -134.454987 48.354076 91.321808
v -136.067719 42.976349 93.634171
v -138.380157 43.841263 91.321808
v -138.380157 23.554096 93.634171
v -136.067719 25.866467 95.946533
v -136.067719 28.178839 93.634171
v -138.380157 26.075169 91.326508
v -136.067719 23.554096 116.760216
v -136.067719 25.866467 114.447853
v -138.380157 23.554096 114.447853
v -138.380157 -0.000002 114.447853
v -136.067719 -0.000002 116.760216
v -131.156464 28.178839 93.634171
v -131.156464 25.866467 95.946533
v -131.156464 33.130947 104.845642
v -131.156464 30.818579 107.158020
v -138.380157 39.601654 55.556068
v -137.082245 39.341003 56.810036
v -137.082245 40.862167 55.782978
v -138.380157 27.419456 56.811230
v -138.380157 26.152838 58.086224
v -138.380157 27.414995 59.348381
v -137.112885 27.414995 58.086224
v -137.112885 27.462349 44.550926
v -138.380157 27.505707 45.818214
v -137.186646 46.763561 44.709709
v -137.185898 45.845985 43.293064
v -138.380157 45.217560 44.704533
v -137.112885 -0.000002 44.550926
v -138.380157 -0.000002 45.818214
v -130.034821 27.008102 94.341881
v -130.034821 31.960211 105.553360
vt 0.084595 0.001992
vt 0.084595 0.172539
vt 0.068132 0.001992
vt 0.092909 0.180798
vt 0.076364 0.180769
vt 0.164596 0.181361
vt 0.068132 0.180769
vt 0.171859 0.296862
vt 0.101094 0.260240
vt 0.164596 0.001992
vt 0.005221 0.180769
vt 0.001928 0.001992
vt 0.172860 0.181078
vt 0.181063 0.300961
vt 0.171825 0.306944
vt 0.099614 0.268460
vt 0.092917 0.258541
vt 0.084595 0.180769
vt 0.172860 0.001992
vt 0.068132 0.287887
vt 0.001928 0.287887
vt 0.068132 0.317316
vt 0.001928 0.317316
vt 0.099718 0.299891
vt 0.117811 0.323102
vt 0.632648 0.001992
vt 0.638075 0.180769
vt 0.526417 0.001992
vt 0.526417 0.155592
vt 0.541466 0.172032
vt 0.390688 0.155592
vt 0.390688 0.001992
vt 0.632648 0.287887
vt 0.541496 0.287887
vt 0.526417 0.185750
vt 0.511338 0.170671
vt 0.390688 0.170671
vt 0.375609 0.155592
vt 0.375609 0.001992
vt 0.632648 0.317316
vt 0.541496 0.317316
vt 0.526417 0.282247
vt 0.526417 0.302237
vt 0.451875 0.498795
vt 0.448582 0.600021
vt 0.405666 0.600021
vt 0.411093 0.498795
vt 0.448582 0.627831
vt 0.405666 0.627831
vt 0.448582 0.321179
vt 0.405666 0.321179
vt 0.662100 0.853790
vt 0.694393 0.926902
vt 0.679314 0.941981
vt 0.647020 0.868869
vt 0.285331 0.001992
vt 0.301794 0.001992
vt 0.285331 0.172539
vt 0.293562 0.180769
vt 0.277017 0.180798
vt 0.301794 0.180769
vt 0.205329 0.181361
vt 0.367998 0.001992
vt 0.364705 0.180769
vt 0.205329 0.001992
vt 0.268831 0.260240
vt 0.198067 0.296862
vt 0.367998 0.287887
vt 0.301794 0.287887
vt 0.197065 0.181078
vt 0.197065 0.001992
vt 0.277009 0.258541
vt 0.285331 0.180769
vt 0.270311 0.268460
vt 0.198101 0.306944
vt 0.188863 0.300961
vt 0.367998 0.317316
vt 0.301794 0.317316
vt 0.252115 0.323102
vt 0.270207 0.299891
vt 0.463240 0.321179
vt 0.569471 0.321179
vt 0.457813 0.499957
vt 0.569471 0.474779
vt 0.705200 0.321179
vt 0.705200 0.474779
vt 0.554422 0.491219
vt 0.720279 0.474779
vt 0.720279 0.321179
vt 0.584550 0.489859
vt 0.705200 0.489859
vt 0.569471 0.504938
vt 0.554392 0.607075
vt 0.463240 0.607075
vt 0.569471 0.601435
vt 0.463240 0.636504
vt 0.554392 0.636504
vt 0.569471 0.621424
vt 0.353519 0.504580
vt 0.394301 0.504580
vt 0.399728 0.605806
vt 0.356812 0.605806
vt 0.356812 0.326965
vt 0.399728 0.326965
vt 0.356812 0.633616
vt 0.399728 0.633616
vt 0.608789 0.941981
vt 0.593710 0.926902
vt 0.626003 0.853790
vt 0.641082 0.868869
vt 0.398233 0.640367
vt 0.518883 0.640367
vt 0.518883 0.672394
vt 0.533962 0.640367
vt 0.533962 0.672394
vt 0.518883 0.817900
vt 0.398233 0.849927
vt 0.518883 0.849927
vt 0.383154 0.640367
vt 0.383154 0.849927
vt 0.533962 0.849927
vt 0.533962 0.817900
vt 0.722798 0.841020
vt 0.722798 0.921022
vt 0.714534 0.832756
vt 0.020020 0.570547
vt 0.051607 0.570547
vt 0.051607 0.810267
vt 0.020020 0.810267
vt 0.001928 0.597586
vt 0.001928 0.783228
vt 0.768146 0.640367
vt 0.817825 0.641809
vt 0.817825 0.827451
vt 0.768146 0.828893
vt 0.701942 0.640367
vt 0.701942 0.828893
vt 0.923021 0.832756
vt 0.965937 0.832756
vt 0.965937 0.998008
vt 0.923021 0.998008
vt 0.839633 0.640367
vt 0.930784 0.640367
vt 0.930784 0.828893
vt 0.839633 0.828893
vt 0.824553 0.647236
vt 0.824553 0.822024
vt 0.839356 0.840071
vt 0.912468 0.840071
vt 0.912468 0.970948
vt 0.839356 0.970948
vt 0.917083 0.832756
vt 0.843971 0.832756
vt 0.917083 0.978262
vt 0.843971 0.978262
vt 0.728736 0.832756
vt 0.801848 0.832756
vt 0.801848 0.978262
vt 0.728736 0.978262
vt 0.066939 0.570547
vt 0.066939 0.810267
vt 0.058706 0.810267
vt 0.058706 0.570547
vt 0.075169 0.578812
vt 0.075169 0.802003
vt 0.700331 0.841020
vt 0.708596 0.832756
vt 0.700331 0.921022
vt 0.160250 0.629796
vt 0.160250 0.853950
vt 0.088040 0.853269
vt 0.088040 0.630477
vt 0.169488 0.629801
vt 0.169488 0.853945
vt 0.081342 0.853269
vt 0.081342 0.630477
vt 0.885072 0.138539
vt 0.870274 0.139700
vt 0.870274 0.038475
vt 0.885072 0.031421
vt 0.885072 0.317316
vt 0.870274 0.317316
vt 0.847838 0.010665
vt 0.859475 0.001992
vt 0.682587 0.010665
vt 0.670949 0.001992
vt 0.645353 0.031421
vt 0.660150 0.038475
vt 0.645353 0.138539
vt 0.660150 0.139700
vt 0.645353 0.317316
vt 0.660150 0.317316
vt 0.965937 0.607075
vt 0.951139 0.600021
vt 0.951139 0.498795
vt 0.965937 0.499957
vt 0.940340 0.636504
vt 0.928703 0.627831
vt 0.951139 0.321179
vt 0.965937 0.321179
vt 0.751814 0.636504
vt 0.763451 0.627831
vt 0.726218 0.607075
vt 0.741015 0.600021
vt 0.726218 0.499957
vt 0.741015 0.498795
vt 0.726218 0.321179
vt 0.741015 0.321179
vt 0.357040 0.637479
vt 0.260543 0.669506
vt 0.260543 0.637479
vt 0.357040 0.847039
vt 0.260543 0.815012
vt 0.377029 0.654865
vt 0.377029 0.829653
vt 0.260543 0.847039
vt 0.010381 0.326965
vt 0.117500 0.326965
vt 0.117500 0.566684
vt 0.010381 0.566684
vt 0.541605 0.849927
vt 0.541605 0.640367
vt 0.695205 0.640367
vt 0.695205 0.849927
vt 0.175658 0.852988
vt 0.175658 0.629796
vt 0.253430 0.629996
vt 0.253430 0.852788
vt 0.347105 0.625933
vt 0.123914 0.625933
vt 0.123914 0.446847
vt 0.347105 0.446847
vt 0.123438 0.326965
vt 0.347581 0.326965
vt 0.587771 0.853790
vt 0.587742 0.862104
vt 0.587742 0.870335
vt 0.579512 0.862104
vt 0.573573 0.853790
vt 0.573544 0.862104
vt 0.573544 0.870335
vt 0.565314 0.862104
vt 0.828803 0.832756
vt 0.833418 0.840071
vt 0.833418 0.970948
vt 0.828803 0.978262
vt 0.559376 0.870335
vt 0.551116 0.862021
vt 0.559346 0.853790
vt 0.559346 0.862021
vt 0.545177 0.870335
vt 0.536918 0.862021
vt 0.545148 0.853790
vt 0.545148 0.862021
vt 0.807786 0.832756
vt 0.822865 0.832756
vt 0.822865 0.978262
vt 0.807786 0.978262
vn 1.000000 0.000000 0.000000
vn 1.000000 0.000000 0.000000
vn 1.000000 0.000000 0.000000
vn 1.000000 0.000000 0.000000
vn 1.000000 0.000000 0.000000
vn 0.966280 0.256881 0.017760
vn 0.673854 0.724182 0.146564
vn 0.061790 0.990718 0.121079
vn 0.121866 0.991162 0.052416
vn 1.000000 0.000000 0.000000
vn 1.000000 -0.000000 0.000000
vn 1.000000 0.000000 0.000000
vn 0.999053 0.042915 0.007130
vn 0.994798 0.018129 0.100246
vn 1.000000 0.000000 0.000000
vn 0.981670 0.190591 0.000000
vn 1.000000 0.000000 0.000000
vn 1.000000 0.000000 0.000000
vn 1.000000 0.000000 0.000000
vn 1.000000 0.000000 0.000000
vn 1.000000 0.000000 0.000000
vn 0.136159 0.990687 0.000000
vn 1.000000 0.000000 0.000000
vn 0.985111 0.171918 0.000000
vn 0.983807 0.179231 0.000000
vn 1.000000 0.000000 0.000000
vn 1.000000 0.000000 0.000000
vn 1.000000 0.000000 0.000000
vn 1.000000 0.000000 0.000000
vn 1.000000 0.000000 0.000000
vn 0.146571 0.989200 0.000000
vn 0.146571 0.989200 0.000000
vn -0.014439 0.052022 -0.998542
vn -0.014439 0.052022 -0.998542
vn -0.014439 0.052022 -0.998542
vn -0.014439 0.052022 -0.998542
vn 0.008771 -0.031591 0.999462
vn 0.008771 -0.031591 0.999462
vn 0.008771 -0.031591 0.999462
vn 0.008771 -0.031591 0.999462
vn 0.001196 -0.030442 -0.999536
vn 0.001196 -0.030442 -0.999536
vn 0.001196 -0.030442 -0.999536
vn 0.001196 -0.030442 -0.999536
vn -0.000724 0.018475 0.999829
vn -0.000724 0.018475 0.999829
vn -0.000724 0.018475 0.999829
vn -0.000724 0.018475 0.999829
vn 0.000000 0.000000 1.000000
vn 0.000000 0.000000 1.000000
vn 0.000000 0.000000 1.000000
vn 0.000000 0.000000 1.000000
vn 0.000002 0.000000 -1.000000
vn 0.000002 0.000000 -1.000000
vn 0.000002 0.000000 -1.000000
vn 0.000002 0.000000 -1.000000
vn 0.043935 0.361205 0.931451
vn 0.123292 0.020275 0.992163
vn 0.978288 0.172019 0.115593
vn 0.133531 0.984222 0.116086
vn 0.505950 0.136812 0.851643
vn 0.504559 0.855601 0.115618
vn 0.084840 0.986978 0.136662
vn 0.992389 0.079195 0.094301
vn 0.063022 0.085255 0.994364
vn 0.066976 0.000000 0.997755
vn 0.995038 0.000000 0.099497
vn 0.985388 0.170323 0.000000
vn 0.136159 0.990687 0.000000
vn 0.000000 0.000000 1.000000
vn 0.000000 0.707105 0.707108
vn 0.000000 0.707105 0.707108
vn 0.000000 1.000000 -0.000000
vn 1.000000 0.000002 0.000000
vn 1.000000 0.000002 0.000000
vn 1.000000 0.000002 0.000000
vn 1.000000 0.000002 0.000000
vn 0.000000 -1.000000 0.000000
vn 0.000000 -1.000000 0.000000
vn 0.000000 -1.000000 0.000000
vn 0.995097 0.055332 0.081974
vn 0.987791 0.098723 -0.120508
vn 0.027638 0.928192 0.371075
vn 0.036976 0.852830 0.520877
vn 0.036399 0.166952 0.985293
vn 0.032836 0.257288 0.965777
vn 0.998770 0.005239 0.049313
vn 0.036476 -0.027445 -0.998958
vn 0.027862 0.007568 -0.999583
vn 0.989199 -0.003880 -0.146527
vn 0.985674 0.000000 -0.168660
vn 0.035710 0.000000 -0.999362
vn 0.705674 0.708536 0.001244
vn 0.705674 0.708535 0.001244
vn 0.705674 0.708536 0.001244
vn 0.705674 0.708536 0.001244
vn 0.705674 0.708536 0.001244
vn 0.705674 0.708535 0.001244
vn 0.705674 0.708536 0.001244
vn 0.705674 0.708536 0.001244
vn -0.770750 0.582817 -0.257429
vn -0.770750 0.582817 -0.257429
vn -0.770750 0.582817 -0.257429
vn -0.770750 0.582817 -0.257429
vn 0.000000 0.000000 -1.000000
vn 0.000000 0.000000 -1.000000
vn 0.000000 0.000000 -1.000000
vn 0.000000 0.000000 -1.000000
vn 0.000000 -0.934776 -0.355238
vn 0.000000 -0.934776 -0.355238
vn 0.000000 -0.934776 -0.355238
vn 0.000000 -0.934776 -0.355238
vn 0.000000 -0.614783 -0.788696
vn 0.000000 -0.614783 -0.788696
vn 0.000000 -0.614783 -0.788696
vn 0.000000 -0.614783 -0.788696
vn -0.061790 0.990718 0.121079
vn -0.121866 0.991162 0.052416
vn -0.136159 0.990687 0.000000
vn 0.000000 0.000000 1.000000
vn 0.000000 0.000000 1.000000
vn 0.000000 0.000000 1.000000
vn 0.000000 0.000000 1.000000
vn -0.146571 0.989200 0.000000
vn -0.146571 0.989200 0.000000
vn 0.000000 0.000000 -1.000000
vn 0.000000 0.000000 -1.000000
vn 0.000000 0.000000 -1.000000
vn 0.000000 0.000000 -1.000000
vn -0.136159 0.990687 0.000000
vn -0.133531 0.984222 0.116086
vn -0.043934 0.361205 0.931451
vn -0.123292 0.020275 0.992163
vn 0.000000 0.000000 1.000000
vn 0.000000 0.517324 0.855790
vn 0.000000 0.517324 0.855790
vn 0.000000 0.517324 0.855790
vn 0.000000 0.517324 0.855790
vn 0.000000 0.914741 -0.404041
vn 0.000000 0.914741 -0.404041
vn 0.000000 0.914741 -0.404041
vn 0.000000 0.914741 -0.404041
vn 0.000000 -0.517328 -0.855787
vn 0.000000 -0.517328 -0.855787
vn 0.000000 -0.517328 -0.855787
vn 0.000000 -0.517328 -0.855787
vn 0.000000 0.707108 0.707105
vn 0.000000 0.707108 0.707105
vn 0.000000 0.707108 0.707105
vn 0.000000 0.707108 0.707105
vn 0.000000 -0.914741 0.404041
vn 0.000000 -0.914741 0.404041
vn 0.000000 -0.914741 0.404041
vn 0.000000 -0.914741 0.404041
vn 0.000000 1.000000 -0.000000
vn -0.084840 0.986978 0.136662
vn -0.063022 0.085255 0.994364
vn -0.066976 0.000000 0.997755
vn -1.000000 -0.000000 0.000000
vn -1.000000 0.000000 0.000000
vn -1.000000 0.000000 0.000000
vn -1.000000 0.000000 0.000000
vn -1.000000 0.000000 0.000000
vn 0.000000 1.000000 0.000000
vn 0.000000 1.000000 0.000000
vn 0.000000 1.000000 0.000000
vn 0.000000 1.000000 0.000000
vn -0.032836 0.257288 0.965777
vn -0.036399 0.166952 0.985293
vn -0.966280 0.256881 0.017760
vn -0.673853 0.724183 0.146564
vn -1.000000 -0.000000 0.000000
vn -1.000000 -0.000000 0.000000
vn -1.000000 0.000000 0.000000
vn -0.999053 0.042916 0.007130
vn -0.994798 0.018130 0.100246
vn -1.000000 0.000000 0.000000
vn -1.000000 0.000000 0.000000
vn -0.981670 0.190591 0.000000
vn -1.000000 0.000000 0.000000
vn -1.000000 0.000000 0.000000
vn -1.000000 0.000000 0.000000
vn -1.000000 0.000000 0.000000
vn -1.000000 0.000000 0.000000
vn -1.000000 0.000000 0.000000
vn -0.983807 0.179231 0.000000
vn -0.985111 0.171918 0.000000
vn -1.000000 0.000000 0.000000
vn -1.000000 0.000000 0.000000
vn -1.000000 0.000000 0.000000
vn -1.000000 0.000000 0.000000
vn 0.014439 0.052022 -0.998542
vn 0.014439 0.052022 -0.998542
vn 0.014439 0.052022 -0.998542
vn 0.014439 0.052022 -0.998542
vn -0.008771 -0.031591 0.999462
vn -0.008771 -0.031591 0.999462
vn -0.008771 -0.031591 0.999462
vn -0.008771 -0.031591 0.999462
vn -0.001196 -0.030442 -0.999536
vn -0.001196 -0.030442 -0.999536
vn -0.001196 -0.030442 -0.999536
vn -0.001196 -0.030442 -0.999536
vn 0.000724 0.018475 0.999829
vn 0.000724 0.018475 0.999829
vn 0.000724 0.018475 0.999829
vn 0.000724 0.018475 0.999829
vn 0.000000 0.000000 1.000000
vn 0.000000 0.000000 1.000000
vn 0.000000 0.000000 1.000000
vn 0.000000 0.000000 1.000000
vn -0.000001 0.000000 -1.000000
vn -0.000001 0.000000 -1.000000
vn -0.000001 0.000000 -1.000000
vn -0.000001 0.000000 -1.000000
vn -0.978288 0.172019 0.115593
vn -0.505950 0.136813 0.851644
vn -0.504559 0.855601 0.115618
vn -0.992389 0.079195 0.094301
vn -0.995038 0.000000 0.099497
vn -0.985388 0.170323 0.000000
vn 0.000000 0.707105 0.707108
vn 0.000000 0.707105 0.707108
vn -1.000000 0.000000 0.000000
vn -1.000000 0.000000 0.000000
vn -1.000000 0.000000 0.000000
vn -1.000000 0.000000 0.000000
vn 0.000000 -1.000000 0.000000
vn 0.000000 -1.000000 0.000000
vn 0.000000 -1.000000 0.000000
vn -0.995097 0.055332 0.081974
vn -0.036976 0.852830 0.520877
vn -0.027638 0.928192 0.371075
vn -0.987791 0.098722 -0.120508
vn -0.998770 0.005239 0.049313
vn -0.036476 -0.027445 -0.998958
vn -0.989199 -0.003880 -0.146527
vn -0.027862 0.007568 -0.999583
vn -0.035710 0.000000 -0.999362
vn -0.985674 0.000000 -0.168660
vn -0.705678 0.708532 0.001244
vn -0.705678 0.708532 0.001244
vn -0.705678 0.708532 0.001244
vn -0.705678 0.708532 0.001244
vn -0.705678 0.708532 0.001244
vn -0.705678 0.708532 0.001244
vn -0.705678 0.708532 0.001244
vn -0.705678 0.708532 0.001244
vn 0.770751 0.582815 -0.257429
vn 0.770751 0.582815 -0.257429
vn 0.770751 0.582815 -0.257429
vn 0.770751 0.582815 -0.257429
s 1
g pCube16
f 2/1/1 46/2/2 5/3/3
f 4/7/4 5/3/3 47/5/5
f 5/3/3 46/2/2 47/5/5
s 2
f 6/20/6 7/24/7 8/25/8 3/22/9
s 3
f 15/26/10 14/27/11 1/28/12
f 1/28/12 14/27/11 29/29/13
f 29/29/13 14/27/11 32/30/14
s 2
f 4/7/15 6/20/6 9/21/16 10/11/17
s off
f 5/3/18 4/7/19 10/11/20 11/12/21
s 2
f 6/20/6 3/22/9 12/23/22 9/21/16
s 4
f 18/44/23 20/45/24 19/46/25 17/47/26
s off
f 21/50/27 18/44/28 17/47/29 22/51/30
s 4
f 24/48/31 23/49/32 19/46/25 20/45/24
s off
f 14/177/33 17/178/34 19/179/35 13/180/36
f 9/193/37 20/194/38 18/195/39 10/196/40
f 15/181/41 22/182/42 17/178/43 14/177/44
f 10/196/45 18/195/46 21/199/47 11/200/48
f 12/197/49 24/198/50 20/194/51 9/193/52
f 13/180/53 19/179/54 23/183/55 16/184/56
s 3
f 25/43/57 27/42/58 28/34/59 26/41/60
f 27/42/58 31/35/61 32/30/14 28/34/59
f 30/36/62 34/37/63 35/31/64 29/29/13
f 33/38/65 37/39/66 36/32/67 35/31/64
f 14/27/11 13/33/68 28/34/59 32/30/14
f 16/40/69 26/41/60 28/34/59 13/33/68
f 1/28/12 29/29/13 35/31/64 36/32/67
f 27/209/58 38/210/70 31/211/61
f 29/29/13 32/30/14 31/35/61 30/36/62
f 33/38/65 35/31/64 34/37/63
f 31/114/61 38/115/71 39/113/72 30/112/62
f 34/111/63 30/112/62 39/113/73
s off
f 38/52/74 40/53/75 41/54/76 39/55/77
f 55/123/78 2/124/79 54/125/80
s 1
f 42/9/81 53/8/82 51/15/83 44/16/84
f 43/17/85 48/18/86 45/4/87 42/9/81
f 49/13/88 52/14/89 53/8/82 50/6/90
f 50/6/90 55/10/91 54/19/92 49/13/88
f 50/6/90 53/8/82 42/9/81 45/4/87
f 55/10/91 50/6/90 2/1/1
f 50/6/90 45/4/87 2/1/1
f 2/1/1 45/4/87 46/2/2
f 42/9/81 44/16/84 43/17/85
s off
f 45/235/93 48/236/94 47/237/95 46/238/96
s 1
f 51/15/83 53/8/82 52/14/89
s off
f 45/239/97 48/240/98 47/241/99 46/242/100
f 38/152/101 56/149/102 57/148/103 40/153/104
f 6/217/105 4/218/106 61/219/107 63/220/108
f 7/126/109 6/127/110 63/128/111 64/129/112
f 8/130/113 7/126/114 64/129/115 65/131/116
s 2
f 3/132/9 8/133/8 65/134/117 60/135/118
f 12/136/22 3/132/9 60/135/118 69/137/119
s off
f 24/198/120 12/197/121 69/201/122 81/202/123
s 4
f 23/138/32 24/139/31 81/140/124 80/141/125
s off
f 16/184/126 23/183/127 80/185/128 73/186/129
s 3
f 26/142/60 16/143/69 73/144/130 83/145/131
f 25/146/57 26/142/60 83/145/131 82/147/132
f 27/209/58 25/214/57 82/215/132 84/212/133
f 38/210/70 27/209/58 84/212/133 95/213/134
s off
f 56/149/135 38/152/136 95/154/137 113/150/138
f 57/148/139 56/149/140 113/150/141 114/151/142
f 40/243/143 57/244/144 114/245/145 97/246/146
f 41/255/147 40/256/148 97/257/149 98/258/150
f 39/156/151 41/157/152 98/158/153 96/159/154
s 3
f 34/111/63 39/113/73 96/116/155 91/117/156
f 33/119/65 34/111/63 91/117/156 90/120/157
f 94/221/158 37/222/66 33/223/65 90/224/157
s 1
f 59/56/159 62/57/160 103/58/161
f 61/61/162 104/59/163 62/57/160
f 62/57/160 104/59/163 103/58/161
f 47/160/164 104/161/165 61/162/166 4/163/167
f 48/164/86 105/165/168 104/161/165 47/160/164
f 105/225/168 48/226/86 43/227/85 100/228/169
s 2
f 63/69/170 60/78/118 65/79/117 64/80/171
s 3
f 72/81/172 58/82/173 71/83/174
f 58/82/173 86/84/175 71/83/174
f 86/84/175 89/87/176 71/83/174
s 2
f 61/61/177 67/64/178 66/68/179 63/69/170
s off
f 62/57/180 68/63/181 67/64/182 61/61/183
s 2
f 63/69/170 66/68/179 69/77/119 60/78/118
s 4
f 75/99/184 74/100/185 76/101/186 77/102/187
s off
f 78/103/188 79/104/189 74/100/190 75/99/191
s 4
f 81/105/124 77/102/187 76/101/186 80/106/125
s off
f 71/189/192 70/187/193 76/188/194 74/190/195
f 66/203/196 67/205/197 75/206/198 77/204/199
f 72/191/200 71/189/201 74/190/202 79/192/203
f 67/205/204 68/207/205 78/208/206 75/206/207
f 69/201/208 66/203/209 77/204/210 81/202/211
f 70/187/212 73/186/213 80/185/214 76/188/215
s 3
f 82/98/132 83/97/131 85/93/216 84/95/133
f 84/95/133 85/93/216 89/87/176 88/92/217
f 87/90/218 86/84/175 92/86/219 91/91/156
f 90/88/157 92/86/219 93/85/220 94/89/158
f 71/83/174 89/87/176 85/93/216 70/94/221
f 73/96/130 70/94/221 85/93/216 83/97/131
f 58/82/173 93/85/220 92/86/219 86/84/175
f 84/212/133 88/216/217 95/213/134
f 86/84/175 87/90/218 88/92/217 89/87/176
f 90/88/157 91/91/156 92/86/219
f 88/121/217 87/118/218 96/116/222 95/122/223
f 91/117/156 96/116/155 87/118/218
s off
f 95/107/224 96/108/225 98/109/226 97/110/227
f 112/166/228 111/167/229 59/168/230
s 1
f 99/66/231 101/74/232 108/75/233 110/67/234
f 100/72/169 99/66/231 102/60/235 105/73/168
f 44/172/84 101/171/232 100/175/169 43/176/85
f 106/70/236 107/62/237 110/67/234 109/76/238
f 107/62/237 106/70/236 111/71/239 112/65/240
f 52/173/89 109/174/238 108/170/233 51/169/83
f 54/229/92 111/230/239 106/231/236 49/232/88
f 49/232/88 106/231/236 109/233/238 52/234/89
f 107/62/237 102/60/235 99/66/231 110/67/234
f 112/65/240 59/56/159 107/62/237
f 107/62/237 59/56/159 102/60/235
f 59/56/159 103/58/161 102/60/235
f 51/169/83 108/170/233 101/171/232 44/172/84
f 99/66/231 100/72/169 101/74/232
s off
f 102/247/241 103/248/242 104/249/243 105/250/244
s 1
f 108/75/233 109/76/238 110/67/234
s off
f 102/251/245 103/252/246 104/253/247 105/254/248
f 95/154/249 97/155/250 114/151/251 113/150/252
